<?xml version="1.0" encoding="UTF-8"?>
<svg viewBox="0 0 1265 790" xmlns="http://www.w3.org/2000/svg">
 <path d="m867,387.8 1,.2h.2 .3l.3-.2 .2-.3h1.5 1.5l.2.3 .3.2 1.7,2.2q1.8,2.3 10.8,3.3t12.5-.5 6-1 25,1.2q22.5.8 22.5-.7t3.5-1.3q3.5.3 4.5.6 1,.2 2.5-1.6 1.5-1.7 6.5-1.7h7.5q2.5,0 3,1.3 .5,1.2 5.7.7 5.3-.5 8.6-1.7 3.2-1.3 4.2-1.8t1.5-.8l.5-.2 1-.2 1-.3 .2-.3 .3-.2 .3.2 .2.3 1,.3 1,.2 .5,2.8q.5,2.7 2.5,3 2,.2 2.5-.6 .5-.7 1.5-.4 1,.2 1,1.2v1 2.5 2.5l-1,.2-1,.3-.2.3-.3.2-.3.2-.2.3 1,.5 1,.5 1.5.5 1.5.5 4,2q4,2 7,2.5t5.5,1 5.5.5h3l1-.3 1-.2v1.5 1.5l2,.2 2,.3-1.5.5-1.5.5h-1.5-1.5l-.2-.3-.3-.2v1 1l.7,1.2q.8,1.3 2.3,1.8l1.5.5-.2.3-.3.2-.5,1-.5,1-.3-.2-.2-.3-.2-.3-.3-.2-.3.2q-.2.3-1.2.6-1,.2-1.5,2-.5,1.7-1.3.4-.7-1.2-2-.7l-1.2.5 .2,1 .3,1v2 2l-.3.2-.2.3-.2.3-.3.2-.3.2-.2.3 3,.5 3,.5h2q2,0 6.5-.5l4.5-.5 .2-.3 .3-.2 .3-.2 .2-.3 1-.3 1-.2v1 1l1.5.2 1.5.3-4,.3-4,.2v1 1l1-.2 1-.3 2.5.5q2.5.5 3-.2 .5-.8 1.5-.6l1,.3 .2.3 .3.2 .5,2.5 .5,2.5v.5 .5l-.3.2-.2.3-.2.3-.3.2-1.3,1.2q-1.2,1.3-.2,1.8t0,.8q-1,.2-1,1.2t-1.2,1.5q-1.3.5-2.8,1.5t-1.2,4.8q.2,3.7 1.7,4.4 1.5.8.3,3.3-1.3,2.5-.6,5.7 .8,3.3-.7,3.6l-1.5.2v1 1l10.5,1.2q10.5,1.3 11.3,2 .7.8 1,1.6 .2.7 8,2.4 7.7,1.8 8.4,3 .8,1.3 2.8,1.3h2l.2-.3 .3-.2 .3,1 .2,1h2 2v1 1l-6.5.2-6.5.3-.2.3q-.3.2-.6.7l-.2.5-.5-.2q-.5-.3-5,0-4.5.2-4.5,1.2t-7.5,1.8q-7.5.7-6,1.7t-27,3-29.3,4.3q-.7,2.2-6,2.4-5.2.3-6-1-.7-1.2-6.4-2l-5.8-.7-2.5.3-2.5.2v-1-1h7 7v-1-1l-10,.2q-10,.3-35-.2t-27,.5-5,1.3q-3,.2-3-.8t-44.5.2q-44.5,1.3-45,2.6-.5,1.2-7.5,2.4l-7,1.3-.2.3-.3.2-.3.2-.2.3-1,.5-1,.5v.3 .2h-3.5-3.5v-1q0-1-1-1h-1l.2-1q.3-1 .6-1.2 .2-.3-.3-1.8t-39-1.5-42.5.5-18.5.5h-31q-16.5,0-40.5-.7l-24-.8-.2-.5-.3-.5h-.3-.2v-1-1l3-.2 3-.3-.2-.3-.3-.2-.3-.2-.2-.3 1.5-.5 3-1 1.5-.5 .2-.3 .3-.2 .3-.2 .2-.3 3.5-.5 3.5-.5-.2-.3-.3-.2-.3-.2-.2-.3-.2-.3-.3-.2-.3-.2-.2-.3-3.5-.5-3.5-.5-12.5-.5-12.5-.5 1-.5 1-.5 .2-.3 .3-.2 .3-.2 .2-.3-1-.3-1-.2 1.5-2.8q1.5-2.7 3-3.2l1.5-.5 .2-.3 .3-.2 .3-1 .2-1 1-.2 1-.3h-3.5-4.5-1l-2-.5-2-.5 .2-.3 .3-.2 .3-.2 .2-.3 4.5-1q4.5-1 5.5-1.5l1-.5 .2-.3 .3-.2 .3-.2 .2-.3 1.5-.5 1.5-.5-1-.5-1-.5-2-.5-2-.5-.2-.3-.3-.2-.3-.2-.2-.3h-2.5q-2.5,0-2.3.3 .3.2-7.4.4-7.8.3-17.3-1.7t-33-1.7l-23.5.2v-.2-.3l-1-.5-1-.5 .2-.3 .3-.2 .3-.2 .2-.3 .2-.3 .3-.2 .3-.2 .2-.3h1 1l6-.5q6-.5 8-.5h2l.2-.3 .3-.2 .3-.2 .2-.3 1-.3 1-.2v-1-1l1-.2 1-.3-.2-.3-.3-.2-.3-.2-.2-.3-1-.3q-1-.2-.8-1.2 .3-1-2.4-2.8-2.8-1.7-4-4.4-1.3-2.8 0-7.3 1.2-4.5 2.2-4.7 1-.3 3.8-7 2.7-6.8 9.2-13.3t4.2-9.7l-2.2-3.3-.2-.3-.3-.2-.3-.2-.2-.3-.2-.3-.3-.2-.3-.2-.2-.3 .5-.3 .5-.2h.2 .3l.3.2 .2.3 1,.5 1,.5h2 2l3.5-.3 3.5-.2 1,1.2q1,1.3 4.2.6 3.3-.8 7.6-3 4.2-2.3 8.2-1.8t15,.5 18.5.5 18.5-1 17.5-.5 19,0 18.3-.7q5.7.2 6-.8 .2-1 2.7-1t2.5,1 2.8-.5q2.7-1.5 22.4-1.3 19.8.3 25.8.3t12,.5 8,.8l2,.2 .2,1 .3,1 .3.2 .2.3 5.5-1q5.5-1 11.5,1t12,2 7-1.7q1-1.8 3.8-2.3 2.7-.5 3-1.5 .2-1 2.2-1t2,1 1,1 1-1 5.2,1.5q5.3,2.5 5.6,3.5 .2,1 2.7,1.2 2.5.3 5.7-2.4 3.3-2.8 6-3 2.8-.3 4.3-1.3t7.5-1.5 7.5-1 6.5.5 6,1.3z" fill="#29181a" fill-rule="evenodd" stroke="#29181a" stroke-width=".5"/>
 <path d="m955.5.8 .5-.8h154.5 154.5v120.5 120.5l-.5.2-.5.3-.2.3-.3.2-.3.2-.2.3-.2.3-.3.2-.3.2q-.2.3-1.7.8t-11,.5h-17q-7.5,0-12,.5t-5.5-.5-9-3-13.2-3.7q-5.3-1.8-17.6-5-12.2-3.3-25.7-5.3t-16.5-3.5-3-8.2q0-6.8-8.5-8.6-8.5-1.7-17.5-5.7t-15.5-3.3q-6.5.8-6.7-.2-.3-1-1.8,1t-4.2,3.2q-2.8,1.3-3.3,2-.5.8-1.5.8t-4,3.2q-3,3.3-2.8,4 .3.8-7,.8-7.2,0-7.2-1t-3.5-1-3.7-2q-.3-2-6-2.5-5.8-.5-5.8-2t-2-2-1.8-3.5q.3-3 1.6-5.5l1.2-2.5-1.5-.2q-1.5-.3-2-.6l-.5-.2-.5-.2-.5-.3-.2-.3-.3-.2-.3-.2-.2-.3-2.5-.5-2.5-.5-2.5-.5q-2.5-.5-4-1.5l-1.5-1-.2-.3-.3-.2-.3-.2-.2-.3-.2-.3-.3-.2-.5-1.5-.5-1.5 1-3q1-3 5-6t4-7v-4l-.3-.2-.2-.3-.2-.3-.3-.2-.3-.2-.2-.3-3-.5q-3-.5-5.5-1.5t-9.5-2.5-10.5-3l-3.5-1.5-1-.5-1-.5-2-.5-2-.5-.2-.3-.3-.2-.3-.2-.2-.3-.2-.3-.3-.2-.3-.2-.2-.3 1-.5 1-.5 2-.5 2-.5 5.5-2q5.5-2 20-3.5t36.5-1.5 24.5-1.5 3.5-1.8l1-.2-.2-1q-.3-1 .2-2.5t1-5.5-4.2-8.8q-4.8-4.7-6.6-7.4-1.7-2.8-7.4-8-5.8-5.3-7.3-8-1.5-2.8-2.5-3-1-.3-7.5-7.6-6.5-7.2-14-11.2t-10.3-7.5q-2.7-3.5-8.4-7.3-5.8-3.7-5-14.4 .7-10.8-2-13.6-2.8-2.7-5.8-4.2l-5-2.5q-2-1-10-3t-14-4.5-4.5-3 0-1-2.5-2l-1-1.5-.2-.3-.3-.2-.3-.2-.2-.3 1.5-.5q1.5-.5 1.7-.8 .3-.2-2-1-2.2-.7-1.7-1.4z" fill="#364370" fill-rule="evenodd" stroke="#364370" stroke-width=".5"/>
 <path d="m289,.2v-.2h333.5 333.5l-.5.8q-.5.7 1.7,1.4 2.3.8 2,1-.2.3-1.7.8l-1.5.5 .2.3 .3.2 .3.2 .2.3 1,1.5q1,1.5 2.5,2t0,1 4.5,3 14,4.5 10,3l5,2.5q3,1.5 5.8,4.2 2.7,2.8 2,13.6-.8,10.7 5,14.4 5.7,3.8 8.4,7.3 2.8,3.5 10.3,7.5t14,11.2q6.5,7.3 7.5,7.6 1,.2 2.5,3 1.5,2.7 7.3,8 5.7,5.2 7.4,8 1.8,2.7 6.6,7.4 4.7,4.8 4.2,8.8t-1,5.5-.2,2.5l.2,1-1,.2q-1,.3-3.5,1.8t-24.5,1.5-36.5,1.5-20,3.5l-5.5,2-2,.5-2,.5-1,.5-1,.5 .2.3 .3.2 .3.2 .2.3 .2.3 .3.2 .3.2 .2.3 2,.5 2,.5 1,.5 1,.5 3.5,1.5q3.5,1.5 10.5,3t9.5,2.5 5.5,1.5l3,.5 .2.3 .3.2 .3.2 .2.3 .2.3 .3.2v4q0,4-4,7t-5,6l-1,3 .5,1.5 .5,1.5 .3.2 .2.3 .2.3 .3.2 .3.2 .2.3 1.5,1q1.5,1 4,1.5l2.5.5 2.5.5 2.5.5 .2.3 .3.2 .3.2 .2.3 .5.3 .5.2v.2 .3h-1.5-1.5l-3-.5-3-.5h-3q-3,0-4.5.5t-1,1-4-1.5l-4.5-2-.2-.3-.3-.2-.3-.2-.2-.3-.2-.3-.3-.2-.3-.2-.2-.3-.2-.3-.3-.2 .3,2q.2,2 1.2,2.2l1,.3h-1.5-1.5l-.2-.3-.3-.2-.5-1-.5-1-.3-.2-.2-.3-.2-.3-.3-.2-.5-1q-.5-1-1.2-8l-.8-7-2,.2q-2,.3-8,1.3l-6,1-3.5.5-3.5.5 .2.3 .3.2 .3.5 .2.5h-.2q-.3,0-.6,1-.2,1-9.7.2-9.5-.7-9-2 .5-1.2-1.5-1.4-2-.3-14-2.8t-20.5-3-22.5-3.2q-14-2.8-14-3.8t-6-4.2q-6-3.3-6.8-2.6-.7.8-6.4-1.4-5.8-2.3-6.3-1.6-.5.8-6,0-5.5-.7-4.7,0 .7.8-.6,1-1.2.3-4.2,1.3t-5.5,1.5l-2.5.5 .2.3 .3.2 .3.2 .2.3 .2.3q.3.2.8.7t-.8,1q-1.2.5-1.2,1.5v1h1 1v1 1l-1-.2-1-.3-.2-.3-.3-.2-.3-.2-.2-.3-.2-.3-.3-.2-.3-.2-.2-.3-1-.5q-1-.5-1.2-.8-.3-.2-4-3-3.8-2.7-11.8-13-8-10.2-14-11-6-.7-17.2,2.6-11.3,3.2-13.8,2.2t-5.2-1.8q-2.8-.7-3.3-2-.5-1.2-4-2-3.5-.7-2.7-1.4 .7-.8-1-1.3-1.8-.5-1.8-2t-14-3.7q-14-2.3-25.5-3.8t-19.5-5.5-10.2-8.3q-2.3-4.2-8.6-10.4-6.2-6.3-16.7-9.8t-17.5-7-17-4.2l-10-.8-1-.2q-1-.3-10-3.3t-7.5-2-3.5,2-24,1.5-30,.5-12.8,2.7q-1.7,2.8-3.4,4.6-1.8,1.7-5.8,1.7t-8-.5-4,2.2q0,2.8-1,2.6-1-.3-19.5,3.7t-26,4.5l-7.5.5-2.5-.3-2.5-.2-1-.2q-1-.3-2-2-1-1.8-5-3.3t-5.5-3.7q-1.5-2.3-9.5-4.6-8-2.2-7.5-.2t-2,1.2l-2.5-.7-.2.3-.3.2-.3-.2-.2-.3-.2-.3-.3-.2-.3-.2-.2-.3-.2-.3-.3-.2-.3-.2-.2-.3-1-.3-1-.2 .2,1 .3,1 .5,1.5 .5,1.5 2,2q2,2 2.3,2.2l.2.3 .2.3 .3.2 .3.2 .2.3 .2.3 .3.2v.5 .5l-.3.2-.2.3-.2.3-.3.2-.3,1-.2,1-4,.2q-4,.3-7.5-.7t-12,0-16,4.3q-7.5,3.2-7.7,4.2-.3,1-3.6,2.8l-3.2,1.7-1.5.5-1.5.5h-1-1l-1-.5-1-.5 .2-.3 .3-.2 .3-.2 .2-.3 .2-.3 .3-.2 1.5-1q1.5-1 1.5-4v-3l-.3-.2-.2-.3-.2-.3-.3-.2-.3-.2-.2-.3-.2-.3-.3-.2-.3-.2-.2-.3h-1.5-1.5l-1.5.5-1.5.5-.2.3-.3.2-.3.2-.2.3-1.5.3-1.5.2-.2-.5q-.3-.5-5.8,3.5l-5.5,4-.3.2-.2.3-2,.3-2,.2-.2-1-.3-1v-1-4q0-3-.7-3.8l-.8-.7-.2-.3-.3-.2-.3-.2-.2-.3h-2.5q-2.5,0-4,1t-5.5,2-4.2-1.3q-.3-2.2-4-3-3.8-.7-6.8.8t-7.2,5.8q-4.3,4.2-10,4.4-5.8.3-13.3,1.8l-7.5,1.5-2,.5-2,.5-.2.3-.3.2-.3.2-.2.3-1,.3-1,.2v-.2-.3l.2-.3 .3-.2 .3-.2 .2-.3 .2-.3 .3-.2 .3-.2 .2-.3 .2-.3 .3-.2 .3-.2 .2-.3 .2-.3 .3-.2 .3-.2 .2-.3 1-.5 1-.5 5-1.7q5-1.8 5.2-2.8 .3-1 .6-1.2l.2-.3 1.5-.5 1.5-.5 1-.5 1-.5-2.5-.5-2.5-.5-.2-.3-.3-.2-.3-.2-.2-.3-1-.5q-1-.5-1.5-2.2-.5-1.8-8-3l-7.5-1.3-.2-.3-.3-.2-.3-.2-.2-.3 1-.5 1-.5 3-1.5q3-1.5 1.5-1.8l-1.5-.2v-1-1l1-.2 1-.3-1-.5q-1-.5-.5-1l.5-.5h-1q-1,0-2.5,1l-1.5,1h-1-1l.2-.3 .3-.2 .5-1q.5-1 1-1.5t.8-2.5q.2-2-.8-1.8-1,.3-.2-2.4l.7-2.8 .3-.2 .2-.3 .2-.3 .3-.2 .3-.2 .2-.3h-1-1l-1,.5q-1,.5-3,1.2l-2,.8 .2-1.5 .3-1.5 .3-.2 .2-.3h-1-1l-.2.3-.3.2v-1.5-1.5l.3-.2 .2-.3 1-.5 1-.5 5.2-1.7q5.3-1.8 7.6-2.6 2.2-.7-.3-1.2t-.5-1l2-.5 2-.5 2-.5 .2-.3 .3-.2 .3-.2 .2-.3-4-.5q-4-.5-10-1.5l-6-1 4-.5 4-.5h8q8,0 14.5-1.5t7-1.8l.5-.2 3.8-1.5q3.7-1.5 4-2.5 .2-1 2.2-1.5t1.5-2.3q-.5-1.7.5-2 1-.2.5-3.2t.5-3 1.2-4q.3-4 1.8-9.5t2.8-6.7q1.2-1.3-1.3-1.8t-2.5-.8zm-42,57.8q1,0 1,1t-1,1-1-1 1-1zm155.8,13.8q1.2-.3 1.7,2.4 .5,2.8-1,2.8t-1.7-2.5q-.3-2.5 1-2.7zm593.4,111q-.2-.3 0-.6 .3-.2.3.3t-.3.3z" fill="#45538f" fill-rule="evenodd" stroke="#45538f" stroke-width=".5"/>
 <path d="m606,71.8 1,.2 2.5,1.8q2.5,1.7 4.7,2.4 2.3.8 4.3,3.8t2.7,9q.8,6 7.6,9.5 6.7,3.5 15,8.7 8.2,5.3 10.4,6.6 2.3,1.2 4.6,8 2.2,6.7 11.2,12.7t14.5,8 6.5,2.5l1,.5 1.5.5 1.5.5-.2.3-.3.2-.3.2-.2.3-2,.3q-2,.2-2,1.2t1.5,1.2q1.5.3-1,.8l-2.5.5-.2.3-.3.2-.3.2-.2.3 1,.5 1,.5 2.5.5 2.5.5 .2.3 .3.2 .3.2 .2.3 1.5.5 1.5.5-4,.5-4,.5-1,.5q-1,.5-1.5,1l-.5.5-1.5.5-1.5.5-.2.3-.3.2-.3.2-.2.3-.2.3-.3.2h-.3-.2l-2,.2q-2,.3-9.5,1.3t-12.3,6.3q-4.7,5.2-5.2,7.7t1.8,4.5q2.2,2 2,4-.3,2-2,4.8l-1.8,2.7 .2.3 .3.2v.5 .5l-.3.2-.2.3-.2.3-.3.2-.3.2-.2.3h1.5 1.5l7.5-.5 7.5-.5 1.5-.3 1.5-.2-.2.5-.3.5-.3.2-.2.3-.2.3-.3.2-.3.2-.2.3-.2.3-.3.2-.3.2-.2.3-.2.3-.3.2-.3.2-.2.3-2,.5q-2,.5-4.5,2.2l-2.5,1.8 .2,1 .3,1 1,1q1,1 2.3,1.5 1.2.5 1.4,1.5 .3,1 .6,2.5l.2,1.5-2.5.2q-2.5.3-2.3.6 .3.2-1.4,1-1.8.7-.8,1.2t.2,1.2q-.7.8-1.7,1.8t-3.7,2.8l-2.8,1.7-.2.3-.3.2-.3,1.5q-.2,1.5 2,2 2.3.5 2.8,1.5l.5,1v.5 .5l-.3.2-.2.3-1,.5q-1,.5-5.5,3t-6.7,3.8q-2.3,1.2-1.8,2.2t-5.5,1-7.7,1.2q-1.8,1.3-5.3,2.6l-3.5,1.2v1 1h-1-1l-.2,1-.3,1-.3.2-.2.3-.2.3-.3.2-.3.2-.2.3v.3 .2l-.5.2q-.5.3-3,1.3t-7,1.5-10-3.5-10-5.5-18-5.5-30-5.7l-16.5-1.8v-.2-.3l-1.5-.5-1.5-.5-.2-.3-.3-.2-.3-.2-.2-.3-.2-.3-.3-.2-.3-.2-.2-.3-.2-.3-.3-.2-.3-.2-.2-.3-1-.5q-1-.5-10-5.5t-17-9-28-4.5-28.5-2-16-6.8q-7.5-5.2-7.3-6.7 .3-1.5-3-4.5l-3.2-3-.2-.5q-.3-.5-.6-.5h-.2l-.2-.5q-.3-.5-.6-.7l-.2-.3-.2-.3-.3-.2-.3-.2-.2-.3-1-.5-1-.5-.2-.3-.3-.2-.3-.2-.2-.3-.2-.3-.3-.2-.3-.2q-.2-.3-3.2-3.3t-3.8-5.3q-.7-2.2-13.2-9.2t-14.2-14q-1.8-7 2.2-7.8 4-.7 4.8-3 .7-2.2 1.2-3.7l.5-1.5v-.5-.5l-.3-.2-.2-.3-.2-.3-.3-.2-.5-1-1-2-.5-1-.3-.2-.2-.3-.2-.3-.3-.2-.3-.2-.2-.3 .2-.3 .3-.2 .3-.5 .2-.5h.2 .3l.3.2 .2.3 .2.3 .3.2 .3.2 .2.3 1,.5 1,.5 1.5.5 1.5.5 .2.3 .3.2 4,2.5q4,2.5 4.7,5.3 .8,2.7 4.8,3.7t10-.3q6-1.2 8.5-4 2.5-2.7 6.5-4.7t25-2.5 35-3 34-4.5 50-3 32-1.5l2-.5 .2-.3 .3-.2 .3-.2 .2-.3 1-.5 1-.5 1-.5 1-.5 .2-.3 .3-.2v-1-1l-.3-.2-.2-.3-.2-.3-.3-.2-.3-.2-.2-.3-.2-.3-.3-.2-.5-1-.5-1-.3-.2-.2-.3-1-.5-1-.5-1-.5q-1-.5-6-1.5t-29.5.5-29.5,0-15.5-2-16.5-2.5-14-2.5-13.5,2-11,.5l-5.5-2-.2-.3-.3-.2-.3-.2-.2-.3-1-.5-1-.5-.2-.3-.3-.2-.3-.2-.2-.3-.2-.3-.3-.2-.3-.2-.2-.3-1-.5-1-.5v-.3-.2l2.5.2 2.5.3 7.5-.5q7.5-.5 26-4.5t19.5-3.7q1,.2 1-2.6 0-2.7 4-2.2t8,.5 5.8-1.7q1.7-1.8 3.4-4.6 1.8-2.7 12.8-2.7t30-.5 24-1.5 3.5-2 7.5,2 10,3.3z" fill="#6b73b7" fill-rule="evenodd" stroke="#6b73b7" stroke-width=".5"/>
 <path d="m340,597.5h2l.2-.3 .3-.2h.3 .2l4.8,2q4.7,2 6,3 1.2,1 1.2,2.8 0,1.7.8,2.4 .7.8 0,1.6-.8.7.2,1 1,.2 1.2,2.7 .3,2.5-.4,4.5-.8,2 .2,2t.2,2q-.7,2-1.2,3.5t-.8,4.3q-.2,2.7-1.4,4-1.3,1.2-1.6,3.2-.2,2-4.7,4.8-4.5,2.7-17.5,12.7t-27.5,15.5-32.5,9.5-18.2,4.3q-.3.2-.8,1.2l-.5,1-.3,1.5-.2,1.5 1,.2 1,.3-.2.3-.3.2-.3.2-.2.3-2,.5-2,.5 1,.5 1,.5 1.5.3 1.5.2v1 1l4-.8q4-.7 10-.7h6l1,.5 1,.5-1,.5-1,.5-1.5.5-1.5.5 .2.3 .3.2v1 1l-.3.2q-.2.3 2.3.8l2.5.5-2.5.5-2.5.5-1.5.5-1.5.5-1,.5-1,.5-.2.3-.3.2-.3.2-.2.3h2 2 1 1l9.5,1q9.5,1 20.3,4.7 10.7,3.8 24,6 13.2,2.3 16.2,2.3h3 3 3l.2.3 .3.2 .3.5 .2.5v.2 .3l-2,.5-2,.5-1.5.5-1.5.5h-23.5q-23.5,0-28-1t-14-.5-20.5,3.5-19,5-20,7.5-18,8.5-10.5,8.5-5.5,5.8q-1,.2-1,1.2t-3.5,3-3.5,3-1,1-2.5,1.8q-1.5,1.7-9.5,5.7t-5.5,4.5-6,3.5-7.5,3.5-1,1-7.5,1l-5.5.5 6,.5 6,.5v.3 .2h-70.5-70.5v-86-86l.5-.2 .5-.3 .2-.3 .3-.2 .3,1q.2,1 4.2,1.8 4,.7 8-.3t30.5-2.5 38-2.5 17.5-.7q6,.2 6-.8v-1l3-.2 3-.3-4-.5-4-.5 2-.5 2-.5 2.8-.7q2.7-.8 1-1.6-1.8-.7 15-1.4 16.7-.8 34.4-1 17.8-.3 50.3,1.2t40,2 16.5,1.5 16-.5 22.5-2.2q15.5-.8 16-2.6 .5-1.7 6-2.4 5.5-.8 6.5-2.6 1-1.7 2-1.7h3z" fill="#3f517b" fill-rule="evenodd" stroke="#3f517b" stroke-width=".5"/>
 <path d="m562,689.5h3l1,.3 1,.2v1.5 1.5h1.5 1.5l-.2,1-.3,1-2.5,5.5q-2.5,5.5-3,7l-.5,1.5v1.5 1.5l.3.2 .2.3 3-1q3-1 3.2-1.3 .3-.2.8-1.2l.5-1 2,6q2,6 7.7,9.2 5.8,3.3 25.8,8.3t27,5 9,.3l2,.2 1.8,12.5q1.7,12.5 2.4,13.7 .8,1.3 3.8,2.8t6.5,3 36,2 43,2.5 12,2.3l1.5.2v.2 .3l-.2.3-.3.2-.3.2-.2.3 1.5.5 1.5.5-2.2-.3q-2.3-.2-2.6.8-.2,1 1,1.5 1.3.5 1,.7-.2.3.8.8l1,.5-2.5.5q-2.5.5-1.7,1.2 .7.8-2,1.6l-2.8.7 1,.5 1,.5-1,.5-1,.5v.3 .2l-5,.2-5,.3v.3 .2h-296.5-296.5v-.2-.3l-6-.5-6-.5 5.5-.5q5.5-.5 7.5-1t1-1 7.5-3.5 6-3.5 5.5-4.5 9.5-5.7q1.5-1.8 2.5-1.8t1-1 3.5-3 3.5-3 1-1.2q1-.3 5.5-5.8t10.5-8.5 18-8.5 20-7.5 19-5 20.5-3.5 14,.5 28,1h23.5l1.5-.5 1.5-.5 2-.5 2-.5v-.3-.2l15-.2q15-.3 25.5-4.3t20.5-8 23.5-4.5 20-.5 21.5-4.5 20.5-5 32.5-1 29-1 5-.5z" fill="#6682c2" fill-rule="evenodd" stroke="#6682c2" stroke-width=".5"/>
 <path d="m0,276.5v-80.5h1q1,0 1,1t5,2.2q5,1.3 7,2.3t11.8,1.7q9.7.8 20.4,2 10.8,1.3 24.8,1.3h32q18,0 17.5-1.3-.5-1.2-1.5-1.4l-1-.3 .2-.3 .3-.2 .3-.2 .2-.3 .2-.3 .3-.2 .3-.2 .2-.3 .2-.3 .3-.2 .3.2 .2.3 .2.3 .3.2 .3,1q.2,1 2,.5 1.7-.5 2-2 .2-1.5 1.2-1.5t1,1 2,.8q2-.3 3-.3h1l1,.3q1,.2 2,1.4 1,1.3 1.5,3.8t3,1.2q2.5-1.2 2.5,1 0,2.3 2.2,2 2.3-.2 2.8-1.2l.5-1 .3.2 .2.3 .2.3 .3.2 .3.2 .2.3 .2.3 .3.2 .3,1 .2,1h-1q-1,0-1.8,2.5-.7,2.5-1,2.7l-.2.3 .2.3 .3.2 .3,1q.2,1 4.4,1.5 4.3.5 4.6,2.3 .2,1.7 1.2,1.7h2.5 1.5l1.5.3 1.5.2-.2,2-.3,2-.3,1-.2,1h-1-1v1 1l-1,.2-1,.3-.2.3-.3.2-.3.2-.2.3-19.5.5q-19.5.5-23,1l-3.5.5-2,.5-2,.5-.2.3-.3.2-.3.2-.2.3 1.5.5 1.5.5h1.5 1.5l.2-.3 .3-.2 .3-.2 .2-.3 29-.5q29-.5 31.8-4.2 2.7-3.8 3.2-4.8l.5-1 .5-1 .5-1 .5-1 .5-1 .3-.2 .2-.3 .2-.3 .3-.2 .3-.2 .2-.3 .2-.3 .3-.2v1.5 1.5l-.3.2-.2.3-.2.3q-.3.2-.3,1.7v1.5l.5,1 .5,1 .5,1 .5,1 .5-1 .5-1 .7-1.8q.8-1.7 6.3-3.7t13.7-4.7q8.3-2.8 11.6-4.6 3.2-1.7 10.2-2.2l7-.5 .2-.3 .3-.2 .3-.2 .2-.3-1.5-.5-1.5-.5-1.5-.5-1.5-.5-1-.5-1-.5-.2-.3q-.3-.2-1-1l-.8-.7-1.5-.5-1.5-.5-.2-.3-.3-.2-.3-.2-.2-.3-1-.5-1-.5 1-.3 1-.2 2.5.2 2.5.3 16.5,2.5q16.5,2.5 20.3,4.2 3.7,1.8 4,2.8 .2,1 3.7.5t3.5.5 3.2,1.5q3.3.5 4,1.7 .8,1.3 2.6,1.6 1.7.2 6.4,1 4.8.7 9,3.4 4.3,2.8 7,5 2.8,2.3 7.8,6.8t9.2,6.8q4.3,2.2 4.6,2.4l.2.3 1,.5 1,.5 .2.3 .3.2 .3.2 .2.3 1,.5 1,.5 .2.3 .3.2 .3.2 .2.3 1,.3 1,.2 1,.5q1,.5 1,1.5t6.5,3.8q6.5,2.7 18,4.7t13,2.5l1.5.5 .2.3 .3.2 .3.2 .2.3 2,.5 2,.5 1,.5 1,.5-.2.3-.3.2-.3.2-.2.3-.2.3-.3.2-.3-.2-.2-.3-.2-.3-.3-.2-.3.2-.2.3-.2.3-.3.2-.3-.2-.2-.3h-6q-6,0-10.5.5t-6,3.2q-1.5,2.8-2.5,3l-1,.3-.2.3-.3.2-.3.2-.2.3-.2.3-.3.2h-.3-.2-1q-1,0 0,9.2 1,9.3.2,10.6-.7,1.2-2.2,2.7t-2.2,3.7q-.8,2.3-2.3,4-1.5,1.8-2.7,2.3-1.3.5-4.6,1.7-3.2,1.3-1,3 2.3,1.8 2,2l-.2.3-.2.3-.3.2-.3.2-.2.3-2.5.5q-2.5.5-24.5,2t-38,.5-23,1l-7,2-1,.3-1,.2 .5,1.8q.5,1.7 1.7,3 1.3,1.2-.4,3.2-1.8,2-.8,2.2 1,.3 2,.8l1,.5-.2.3-.3.2-.3.2-.2.3-1,.5q-1,.5-4.5,1.5t-18.5,1.7l-15,.8-3-.2q-3-.3-24.5.7t-31.5-.5-18-1.5-9.5,1.7q-1.5,1.8-.5,1.8t1,1-1,1-.5,1.2q.5,1.3-3.5,3.3l-4,2-1,.5-1,.5 1,.5 1,.5 2,.5q2,.5 3,1l1,.5 .2.3 .3.2 .3.2 .2.3-3,.3q-3,.2-3,1.2v1h-3.5-3.5v1 1l1,.2 1,.3-3.5.3-3.5.2h-6.5-6.5v-.2q0-.3-23-1.3t-43-2.5l-20-1.5-.5.3-.5.2v-80.5zm273.2-59.7q-.2-.3 0-.6 .3-.2.3.3t-.3.3z" fill="#413c5b" fill-rule="evenodd" stroke="#413c5b" stroke-width=".5"/>
 <path d="m159.5,502 1.5.5 .5.3 .5.2v.2 .3l.5.3 .5.2v.2 .3l.2.3 .3.2 .3.2 .2.3 .2.3 .3.2 .3.2 .2.3 .2.3 .3.2 .3.2 .2.3-1.5.5-1.5.5-.2.3-.3.2-.3.2-.2.3 .2.3 .3.2 .3.2 .2.3-.2.3-.3.2-.3.2-.2.3 .2.3 .3.2 .3.2 .2.3-19,1q-19,1-27.5,1.5t-15.7,2.2q-7.3,1.8-8.6,2.3-1.2.5-2.2,2.7-1,2.3-4.8,5.6-3.7,3.2-3.4,4.2 .2,1-1,1.5-1.3.5-1.3,1t-.3.7l-.2.3 .8,1.3q.7,1.2 4.4,6 3.8,4.7 5.3,5 1.5.2 1.5,1.2t10.5,3.8q10.5,2.7 37,4.7t39.5,5 33.5,5.5 36,5.5 33.5,4 25.5,2.5 8.5,1.8l1,.2v.2 .3l.2.3 .3.2 .3.2 .2.3 1.5.5 1.5.5 2,.5 2,.5 6,2q6,2 8,2.5l2,.5 .2.3 .3.2 .3.2 .2.3 1.5.5 1.5.5-1,.5-1,.5 .2.3 .3.2 .3,1.5 .2,1.5h-.2-.3l-.3.2-.2.3h-2-3q-1,0-2,1.7-1,1.8-6.5,2.6-5.5.7-6,2.4-.5,1.8-16,2.6-15.5.7-22.5,2.2t-16,.5-16.5-1.5-40-2-50.3-1.2q-17.7.2-34.4,1-16.8.7-15,1.4 1.7.8-1,1.6l-2.8.7-2,.5-2,.5h4 7.5 3.5l-2.5.5-2.5.5-4,.3-4,.2v1q0,1-6,.8-6-.3-17.5.7t-38,2.5-30.5,2.5-8,.3q-4-.8-4.2-1.8l-.3-1-.3.2-.2.3-.5.3-.5.2v-66.5-66.5h.2 .3l.3.2 .2.3h.5 .5l9-.3q9-.2 9.5-1.4 .5-1.3 13.5-2.3t15.2.3q2.3,1.2 3,2.4 .8,1.3 5.8.8t8.5-2 11.5,0 12.8,2.2q4.7.8 5.4,2 .8,1.3 3.3,1.6 2.5.2 2.5,1.7t3.5.7q3.5-.7 4.5-1.7t8.5.5 11.5,2.2q4,.8 4,1.8t2.2,1.5q2.3.5 3,2.5 .8,2 9.8,2.8 9,.7 10.5,1.2z" fill="#4d4962" fill-rule="evenodd" stroke="#4d4962" stroke-width=".5"/>
 <path d="m0,98v-98h144.5 144.5v.2q0,.3 2.5.8t1.3,1.8q-1.3,1.2-2.8,6.7t-1.8,9.5q-.2,4-1.2,4t-.5,3-.5,3.2q-1,.3-.5,2 .5,1.8-1.5,2.3t-2.2,1.5q-.3,1-4,2.5l-3.8,1.5-30.5-1.2q-30.5-1.3-35.3.4-4.7,1.8-6.7,4.3t-2.5,8-1.2,7q-.8,1.5-10.3.7-9.5-.7-18.7-2-9.3-1.2-21.8,3.3t-15.8,7.7q-3.2,3.3-6,5-2.7,1.8-3,2.8-.2,1-3,2-2.7,1-3,2-.2,1-2.2,1t-1.2,5.5q.7,5.5 4.4,11 3.8,5.5 14.8,14t11,9.5 1,1 5.5,5.2q4.5,5.3 13,13 8.5,7.8 8.7,18.8 .3,11 3,15.8 2.8,4.7 3.8,5 1,.2 4.5,4 3.5,3.7 7.5,6.2t16,8.5 14.5,6.5 2.5.8v.2l-1,.2-1,.3 1,.5 1,.5 .2.3 .3.2 .3.2 .2.3 1.5.5 1.5.5 .8.7q.7.8 1,1l.2.3 1,.5 1,.5 1.5.5 1.5.5 1.5.5 1.5.5-.2.3-.3.2-.3.2-.2.3-7,.5q-7,.5-10.2,2.2-3.3,1.8-11.6,4.6-8.2,2.7-13.7,4.7t-6.3,3.7l-.7,1.8-.5,1-.5,1-.5-1-.5-1-.5-1-.5-1-.3-1.5-.2-1.5h-1-1l-.2,1-.3,1-.5,1q-.5,1-3.2,4.8-2.8,3.7-31.8,4.2l-29,.5-.2.3-.3.2-.3.2-.2.3h-1.5-1.5l-1.5-.5-1.5-.5 .2-.3 .3-.2 .3-.2 .2-.3 2-.5 2-.5 3.5-.5q3.5-.5 23-1l19.5-.5 .2-.3 .3-.2 .3-.2 .2-.3 1-.3 1-.2v-1-1h1 1l.2-1 .3-1 .3-2 .2-2-1.5-.2-1.5-.3h-1.5-2.5q-1,0-1.2-1.7-.3-1.8-4.6-1.3l-4.2.5-.2-2-.3-2-.3-.2-.2-.3 .2-.3q.3-.2 1-2.7 .8-2.5 1.8-2.5h1l-.2-1-.3-1-.3-.2-.2-.3-.2-.3-.3-.2-.3-.2-.2-.3-.2-.3-.3-.2-.5,1q-.5,1-2.8,1.2-2.2.3-2.2-2 0-2.2-2.5-1-2.5,1.3-3-1.2t-1.5-3.8q-1-1.2-2-1.4l-1-.3h-1q-1,0-4.5,1t-3.5,2.7v1.8l-1-.2q-1-.3-1.2-1-.3-.8-.8-2.3l-.5-1.5-.3-.2-.2-.3-.2-.3-.3-.2-.3.2-.2.3-.2.3-.3.2-.3.2-.2.3-.2.3-.3.2-.3.2-.2.3 1,.3q1,.2 1.5,1.4 .5,1.3-17.5,1.3h-32q-14,0-24.8-1.3-10.7-1.2-20.4-2-9.8-.7-11.8-1.7t-7-2.3q-5-1.2-5-2.2t-1-1h-1v-98z" fill="#2d375d" fill-rule="evenodd" stroke="#2d375d" stroke-width=".5"/>
 <path d="m1086.8,486.8 .2-.3 6.5-.3 6.5-.2 .5,1.8q.5,1.7 5.5,1.7t6.5-.7q1.5-.8 3.3,1.2 1.7,2 1.7,4t.5,3l.5,1 .3.2 .2.3 3,.3 3,.2 .8-5.5q.7-5.5 5.4-5.7 4.8-.3 10.6,1.4 5.7,1.8 6.4,5.3 .8,3.5 1.8,3.7 1,.3 2,.3h1l3.5-.3q3.5-.2 4.3-3.7 .7-3.5 4-4.3 3.2-.7 17,.6 13.7,1.2 13.4,2.2-.2,1 2.8,1.5t3,1.5 1,1 1.5,1.2q.5,1.3 6.7,2 6.3.8 6.6,2 .2,1.3 16.2.8t15.5-1 .5-.8q1-.2 1.5-2.2t2-2 1.3-2.5q-.3-2.5-.3-4v-1.5l.3-.2 .2-.3 .2-.3 .3-.2 .3-.2 .2-.3 5-.3 5-.2v82.5 82.5h-.2-.3l-.3,2.5-.2,2.5-1.5.2q-1.5.3-8,1.3t-17,1-16,1-16,7.5-20,9.8q-9.5,3.2-9.5,4.2t-3.5,2.8q-3.5,1.7-15.5,5.7t-12.5,5.3q-.5,1.2-8.5,3.2t-8,3-5.5,2.2q-5.5,1.3-6,2.6-.5,1.2-3.5,2-3,.7-12,.7t-17.2-3.7q-8.3-3.8-23-9.8-14.8-6-14.8-7.5t-3-2.5-2.8-11.5q.3-10.5-.4-9-.8,1.5-1.8,1.5h-1l.2-1 .3-1 .3-1q.2-1 1.2-1t1.2-1.5l.3-1.5 .5-1 .5-1v-1-1l-.3.2-.2.3-.2.3-.3.2-.5,1-.5,1-.3.2-.2.3-.2.3-.3.2-.3.2-.2.3-1,.3-1,.2 .2-1 .3-1 .3-.2 .2-.3 .2-.3 .3-.2 .3-.2 .2-.3 .2-.3 .3-.2 .5-1 .5-1 4-6.5q4-6.5 6.7-8.7 2.8-2.3 1.8-2.6-1-.2-1-1.2t8-4.5 8-4.5 2.2-2q2.3-1 4.6-2.2 2.2-1.3.2-1.8t1.2-1.8q3.3-1.2 6-4.4 2.8-3.3 3.8-3.8l1-.5 .2-.3 .3-.2 .3-.2 .2-.3 .2-.3 .3-.2v-1.5-1.5l-.3-.2-.2-.3-.2-.3-.3-.2-.3-.2-.2-.3-1.5-.5-1.5-.5-.2-.3q-.3-.2-2.8-1.2t-8.8-2.8q-6.2-1.7-13.2-1.7t-12-1-26.5,0-38-.5-22.3-.8q-5.7.8-18.4,2-12.8,1.3-25.3,1.6l-12.5.2v-.2-.3l-1-.5-1-.5-1-.5-1-.5-1-.5-1-.5-5-.3-5-.2v-1-1l-1.5-.2-1.5-.3 .2-.3 .3-.2 .3-.2 .2-.3 .2-.3 .3-.2 .3-.2 .2-.3 .2-.3 .3-.2 .3-.2 .2-.3 1.5-.5 1.5-.5 1.5-.5 1.5-.5v-.3-.2l22-2.2q22-2.3 26-4.3t30-3 41.5,0 20,0 3.5-1.3q-1-.2-1.5-2-.5-1.7 6.5-2.2t6-1 7-4.5 10.5-5.7q2.5-1.8 2.5-2.8t4.5-3 7-5.2q2.5-3.3 3.5-3.6 1-.2 1-1.7t2.8-3q2.7-1.5 3-1.7 .2-.3 1.2-.6l1-.2 1-.2 1-.3 .2-.3 .3-.2 .3-.2 .2-.3 1-.5 1-.5 2-3.5q2-3.5 5.2-3.2 3.3.2 3.6.4l.2.3 1.5.3 1.5.2 .2-1 .3-1v-.5-.5l-.3-.2-.2-.3 .2-.3 .3-.2 .3-.2 .2-.3-3-.3q-3-.2-5.8-11.2-2.7-11-6-13.8-3.2-2.7-4.2-4.7t-7-2.7l-6-.8v-1-1l3.5-.5q3.5-.5 3.5-1.5v-1l.2-.5q.3-.5.6-.7zm-30.3,148q1.5-.8 1.5.2t-1.5.8q-1.5-.3 0-1z" fill="#3a3b56" fill-rule="evenodd" stroke="#3a3b56" stroke-width=".5"/>
 <path d="m1082.8,603.2 .2.3 1.5.5 1.5.5 .2.3 .3.2 .3.2 .2.3 .2.3 .3.2v1.5 1.5l-.3.2-.2.3-.2.3-.3.2-.3.2-.2.3-1,.5q-1,.5-3.8,3.8-2.7,3.2-6,4.4-3.2,1.3-1.2,1.8t-.2,1.8q-2.3,1.2-4.6,2.2-2.2,1-2.2,2t-5,3-4.8,3q.3,1-4.7,5t-9,10.5l-4,6.5-.5,1-.5,1-.3.2-.2.3-.2.3-.3.2-.3.2-.2.3 .2.3 .3.2 .3.2 .2.3 .2.3 .3.2 .3-.2 .2-.3 .2-.3 .3-.2 .5-1 .5-1 .3-1.5 .2-1.5h1 1l-.2,1-.3,1-.5,1-.5,1-.5,1-.5,1-.3,12.5q-.2,12.5 2.8,13.5t3,2.5 14.8,7.5q14.7,6 23,9.8 8.2,3.7 17.2,3.7t12-.7q3-.8 3.5-2 .5-1.3 6-2.6 5.5-1.2 5.5-2.2t8-3 8.5-3.2q.5-1.3 12.5-5.3t15.5-5.7q3.5-1.8 3.5-2.8t9.5-4.2q9.5-3.3 20-9.8t16-7.5 16-1 17-1 8-1.3l1.5-.2 .2-2.5 .3-2.5h.3 .2v69 69h-265.5-265.5v-.2-.3l5-.3 5-.2 7.5-.2 7.5-.3 .2-.3 .3-.2 .3-.2 .2-.3-3-.5-3-.5 20.5-.5q20.5-.5 23.5-3.8 3-3.2 6.5-5 3.5-1.7 11.3-14.4 7.7-12.8 11.4-15.6 3.8-2.7 6.6-7.4 2.7-4.8 3.2-7.8t-2-10-3-14.5 .8-11.7q1.2-4.3.2-8.6-1-4.2 0-4.4 1-.3 6.5-5.3t6.7-7.7q1.3-2.8 5.6-6.6 4.2-3.7 12.2-11.2t8.8-10.8q.7-3.2 2-3.7l1.2-.5-.2-1-.3-1-.3-.2-.2-.3-.2-.3-.3-.2-.3-.2-.2-.3-.2-.3-.3-.2-.3-.2-.2-.3-1.5-.5q-1.5-.5-4.5-1.2-3-.8-3-1.8t-6-1.2q-6-.3-18.5-2.8l-12.5-2.5 .2-.3 .3-.2 .3-.2 .2-.3 1.5-.5 3-1 1.5-.5-.2-.3-.3-.2-.3-.2-.2-.3-.2-.3-.3-.2-.3-.2-.2-.3-1-.5-1-.5h-4-4-1-1l-.2-.3-.3-.2-.3-1-.2-1 1-.2 1-.3-1.5-.5-1.5-.5 1-.5 1-.5 15-1q15-1 22.5-3.5t18.5-4 12-2 4.5-1l3.5-.5 3.5-.3 3.5-.2 12.5-.2q12.5-.3 25.3-1.6 12.7-1.2 18.4-2 5.8-.7 22.3.8t38,.5 26.5,0 12,1 13.2,1.7q6.3,1.8 8.8,2.8t2.8,1.2zm-28.6,31.6q-.2-.3 0-.6 .3-.2.3.3t-.3.3zm-2.2.2q1,0 1,1t-1,1-1-1 1-1zm-14,30q1,0 1,1t-1,1h-1v-1q0-1 1-1z" fill="#43598a" fill-rule="evenodd" stroke="#43598a" stroke-width=".5"/>
 <path d="m1261.8,396.2 .2.3 1.5.3 1.5.2v45 45l-5,.2-5,.3-.2.3-.3.2-.3.2-.2.3-.2.3-.3.2v1.5q0,1.5.3,4 .2,2.5-1.3,2.5t-1,2-1.5,2.2q-2,.3-1.5.8t-15.5,1-16.2-.8q-.3-1.2-6.6-2-6.2-.7-6.7-2-.5-1.2-1.5-1.2t-1-1-3-1.5-2.8-1.5q.3-1-13.4-2.2-13.8-1.3-17-.6-3.3.8-4,4.3-.8,3.5-4.3,3.7l-3.5.3h-1q-1,0-2-.3-1-.2-1.8-3.7-.7-3.5-6.4-5.3-5.8-1.7-10.6-1.4-4.7.2-5.4,5.7l-.8,5.5-3-.2-3-.3-.2-.3-.3-.2-.5-1q-.5-1-.5-3t-1.7-4q-1.8-2-3.3-1.2-1.5.7-6.5.7t-5.5-1.7l-.5-1.8v-1-1h-2-2l-.2-1-.3-1-.3.2-.2.3h-2q-2,0-2.8-1.3-.7-1.2-8.4-3-7.8-1.7-8-2.4-.3-.8-1-1.6-.8-.7-11.3-2l-10.5-1.2v-1-1l1.5-.2q1.5-.3.7-3.6-.7-3.2.6-5.7 1.2-2.5-.3-3.3-1.5-.7-1.7-4.4-.3-3.8 1.2-4.8t2.8-1.5q1.2-.5 1.2-1.5t1-1.2q1-.3 0-.8t.2-1.8l1.3-1.2 .3-.2 .2-.3 .2-.3 .3-.2v-.5-.5l-.5-2.5-.5-2.5-.3-.2-.2-.3-1-.3q-1-.2-1.5.6-.5.7-3,.2l-2.5-.5-1,.3-1,.2v-1-1l4-.2 4-.3-1.5-.3-1.5-.2v-1-1l-1,.2-1,.3-.2.3-.3.2-.3.2-.2.3-4.5.5q-4.5.5-6.5.5h-2l-3-.5-3-.5 .2-.3 .3-.2 .3-.2 .2-.3 .2-.3 .3-.2v-2-2l-.3-1-.2-1 3.5-1.2q3.5-1.3 3.7-1.6l.3-.2 .3.2 .2.3 .2.3 .3.2 .5-1 .5-1 .3-.2 .2-.3-1.5-.5q-1.5-.5-3-.8l-1.5-.2 .2-1 .3-1 .5-1 .5-1 .3.2 .2.3h1.5 1.5l1.5-.5 1.5-.5-2-.3-2-.2v-1.5-1.5l-1,.2-1,.3h-3q-3,0-5.5-.5t-5.5-1-7-2.5l-4-2-1.5-.5-1.5-.5-1-.5-1-.5 .2-.3 .3-.2 .3-.2 .2-.3 1-.3 1-.2v-2.5-2.5l1-.2 1-.3 .2-.3 .3-.2 .3.2 .2.3 .2.3 .3.2 .3.2 .2.3 3.2,1.3q3.3,1.2 5,2 1.8.7 6.3,1.2t23,.5 26.5.5 14.5-.5 7.7-2.7q1.3-1.8 1.6-2l.2-.3 2-.3 2-.2v3q0,3 1.5,2.8l1.5-.3 1.8-.7q1.7-.8 3.7-2.8t2.3-3l.2-1 1.5.2 1.5.3 .5,3.3q.5,3.2 8.5,2.4 8-.7 10-.7t3.2-1.7q1.3-1.8 1.6-2.8l.2-1 .2-2 .3-2 .3-.2 .2-.3 2.5.3q2.5.2 2.7-1.8l.3-2 .3-.2 .2-.3 1.5-.3 1.5-.2 1,6q1,6 4.5,7.8 3.5,1.7 10-1.3t13-3.5 11.3-4.8q4.7-4.2 8.4-4.4 3.8-.3 9-2 5.3-1.8 6-3 .8-1.3 5.3-.8t6.5,1.2q2,.8 3.5,2.6 1.5,1.7 5.3,2.4 3.7.8 6.2,6.3t2.2,6.5q-.2,1 5.8.2 6-.7 6.8,0 .7.8 1,1zm-225.6,26.6q-.2-.3 0-.6 .3-.2.3.3t-.3.3z" fill="#120e0e" fill-rule="evenodd" stroke="#120e0e" stroke-width=".5"/>
 <path d="m969.8,175h.2l4,.2q4,.3 4.8,4 .7,3.8-.6,8.3-1.2,4.5-2.2,4.5t-1.5,4.5-1.5,4.7q-1,.3-3.2,4-2.3,3.8-3.6,4.3-1.2.5-1.2,2.5t-2.5,2.2l-2.5.3-.2.3-.3.2-.3.2-.2.3-1,.3-1,.2 .2,1.5 .3,1.5 .3.2 .2.3 .2.3 .3.2 .3.2 .2.3 5,1q5,1 6,1.5l1,.5 .2.3 .3.2 .3.2 .2.3 .2.3 .3.2 .5,1 .5,1v1 1l-.3.2-.2.3-.2.3-.3.2-.3.2-.2.3-.2.3-.3.2-.3.2-.2.3-.2.3-.3.2-.3.2-.2.3-2.5.5q-2.5.5-16.5.8-14,.2-14.5-1-.5-1.3-10.5-1.8l-10-.5-1,.5-1,.5-1,.5-1,.5-.2.3-.3.2v1.5 1.5l.3,1 .2,1h2q2,0 3,2.2 1,2.3 3.8,3.6 2.7,1.2 6,4.4 3.2,3.3 15.4,11 12.3,7.8 12.6,8.8 .2,1 1.2,1t2,2.8q1,2.7 7,5.2t20.5,5 24,6.8q9.5,4.2 9.5,5.2t21.5,5.8q21.5,4.7 28.5,7.2t9,3l2,.5 1,.5 1,.5 1,.5 1,.5 .2.3 .3.2 .3.2 .2.3 .2.3 .3.2v.5 .5l-.3.2-.2.3-3.5.5-3.5.5h-7.5q-7.5,0-21.5-1.7l-14-1.8-1.5-.2-1.5-.3-4.5-.5q-4.5-.5-6-1t-17.5-2.5-36-3-50.5-2-40-2.5-17.5-4-15-2.5-14.5-.5-22-4.5-33.5-5.5-25-3-7.5-5-6.5-3.5-11.5-1.3q-6.5-1.2-7-4.2t-16-5.8q-15.5-2.7-36.5-3.2t-32.5-2l-11.5-1.5-3.5-.3-3.5-.2v-.2-.3l.2-.3 .3-.2 .3-.2 .2-.3 .2-.3 .3-.2 .3-1 .2-1h1 1v-1-1l3.5-1.2q3.5-1.3 5.3-2.6 1.7-1.2 7.7-1.2t5.5-1 1.8-2.2q2.2-1.3 6.7-3.8t5.5-3l1-.5 .2-.3 .3-.2v-.5-.5l-.5-1q-.5-1-2.8-1.5-2.2-.5-2-2l.3-1.5 .3-.2 .2-.3 2.8-1.7q2.7-1.8 3.7-2.8t1.7-1.8q.8-.7-.2-1.2t.8-1.2q1.7-.8 1.4-1-.2-.3 2.3-.6l2.5-.2-.2-1.5q-.3-1.5-.6-2.5-.2-1-1.4-1.5-1.3-.5-2.3-1.5l-1-1-.3-1-.2-1 2.5-1.8q2.5-1.7 4.5-2.2l2-.5 .2-.3 .3-.2 .3-.2 .2-.3 .2-.3 .3-.2 .3-.2 .2-.3 .2-.3 .3-.2 .3-.2 .2-.3 .2-.3 .3-.2 .3-.5 .2-.5 6.5-.8q6.5-.7 23-3 16.5-2.2 16.5-3.2t2.5-1.8q2.5-.7 10.5-.2t9.5,1 20,1.5 25.5,3 16.5,0 16.3-6.3q6.7-4.2 7.2-5.2l.5-1 .5-2 .5-2v-.5-.5l-.5-1-.5-1v-1-1h.3 .2l1-.2 1-.3 .2-.3 .3-.2 .3.2 .2.3 .2.3 .3.2 .3.2 .2.3 .2.3 .3.2v-1-1l-.3-.2-.2-.3h1 1l1,.3 1,.2-.2-1-.3-1-.3-.2-.2-.3-.2-.3-.3-.2-.3-.2-.2-.3-.2-.3-.3-.2-.3-.2-.2-.3-.2-.3-.3-.2-.5-1q-.5-1-.8-1h-.2l-.2-.5q-.3-.5-.6-.5h-.2l-.2-.5q-.3-.5-.6-1.5-.2-1 1.3-1.2 1.5-.3.5-1.3l-1-1-.2-.3-.3-.2-.3-1.5-.2-1.5h1 1l.5,1.2q.5,1.3 2.5.6 2-.8 2-1.8t3.2-1q3.3,0 2.6-.8-.8-.7 6.2-.2t11,1.8q4,1.2 4.5.4 .5-.7 7.5,3 7,3.8 7,4.8t14,3.8q14,2.7 22.5,3.2t20.5,3 14,2.8q2,.2 1.5,1.4-.5,1.3 9,2 9.5.8 9.7-.2 .3-1 .6-1z" fill="#666ba5" fill-rule="evenodd" stroke="#666ba5" stroke-width=".5"/>
 <path d="m364,454.8 42,.2v.2 .3l1,.5 1,.5 5.8.7q5.7.8 5,1.6-.8.7 39.2,1.2t43,.2l3-.2 23.5-.2q23.5-.3 33,1.7t17.3,1.7q7.7-.2 7.4-.4-.2-.3 2.3-.3h2.5l.2.3 .3.2 .3.2 .2.3 2,.5 2,.5 1,.5 1,.5-1.5.5-1.5.5-.2.3-.3.2-.3.2-.2.3-1,.5q-1,.5-5.5,1.5l-4.5,1-.2.3-.3.2-.3.2-.2.3 2,.5 2,.5h1 4.5 3.5l-1,.3-1,.2-.2,1-.3,1-.3.2-.2.3-1.5.5q-1.5.5-3,3.2l-1.5,2.8 1,.2 1,.3-.2.3-.3.2-.3.2-.2.3-1,.5-1,.5 12.5.5 12.5.5 3.5.5 3.5.5 .2.3 .3.2 .3.2 .2.3 .2.3 .3.2 .3.2 .2.3-3.5.5-3.5.5-.2.3-.3.2-.3.2-.2.3-1.5.5-3,1-1.5.5 .2.3 .3.2 .3.2 .2.3-3,.5q-3,.5-2.5,1.8l.5,1.2-1-.2q-1-.3-13-1l-12-.8-19.5.2q-19.5.3-24,1-4.5.8-4.5,2.3t-4,.7q-4-.7-19,.3t-14.5,1.5-13.5-.5-20,0-20.5-1-16.5-1.7q-2,.2-2-.8t-2.2,0q-2.3,1-6.6,2-4.2,1-4.7,2.2-.5,1.3-8,2l-7.5.8v-.2q0-.3-1-.6-1-.2-.8-1.2 .3-1-33-1.2-33.2-.3-40.2,1.2t-8,3.2q-1,1.8-20,.8t-18.8,1.5q.3,2.5-2,5.3-2.2,2.7-4.2,1.7t-9-1h-18q-11,0-33.5-.7-22.5-.8-22.5-1.8t-5.5-3.8l-5.5-2.7-1-.3-1-.2-.2-.5q-.3-.5-.6-.5h-.2l-.5-.2-.5-.3-1.5-.5q-1.5-.5-10.5-1.2-9-.8-9.8-2.8-.7-2-3-2.5-2.2-.5-2.2-1.5t-4-1.8q-4-.7-11.5-2.2t-8.5-.5-4.5,1.7q-3.5.8-3.5-.7t-2.5-1.7q-2.5-.3-3.3-1.6-.7-1.2-5.4-2-4.8-.7-12.8-2.2t-11.5,0-8.5,2-5.8-.8q-.7-1.2-3-2.4-2.2-1.3-15.2-.3t-13.5,2.3q-.5,1.2-9.5,1.4l-9,.3h-.5-.5l-.2-.3-.3-.2h-.3-.2v-11-11l.5-.2 .5-.3 1.5-.5 1.5-.5 1.2-.7q1.3-.8 1.6.2 .2,1 6.2,1.5t6,1.5 9-.2q9-1.3 22.5-1.8t21.5-1l8-.5 2-.3 2-.2v-1-1l-1-.2-1-.3-3-.3-3-.2v-1-1l1-.2 1-.3h122q122,0 164,.3z" fill="#231516" fill-rule="evenodd" stroke="#231516" stroke-width=".5"/>
 <path d="m514,234.8 5,.2 16.5,1.8q16.5,1.7 30,5.7t18,5.5 10,5.5 10,3.5 7-1.5 3-1.3l.5-.2 3.5.2 3.5.3 11.5,1.5q11.5,1.5 32.5,2t36.5,3.2q15.5,2.8 16,5.8t7,4.2q6.5,1.3 11.5,1.3t6.5,3.5 7.5,5 25,3 33.5,5.5 22,4.5 14.5.5 15,2.5 17.5,4 40,2.5 50.5,2 36,3 17.5,2.5 6,1l4.5.5 1.5.3 1.5.2v.2 .3l-13,.5q-13,.5-14.5,1l-1.5.5-.2.3-.3.2-.5,1-.5,1v2.5 2.5 1 1l-.3.2-.2.3 .2.3 .3.2 .3.2 .2.3 .2.3 .3.2 .5,1 .5,1 .3,1 .2,1 1,.2 1,.3 .2.3 .3.2 .3.5 .2.5-1,.2-1,.3-11,.5q-11,.5-20,.5h-9l-2.5.5-2.5.5-1.5.5-1.5.5v.3 .2l-2.5-.2q-2.5-.3-8.7,1-6.3,1.2-5.8,2.7t-20.2,1.7q-20.8.3-24.3-1.2t-9-2-13-1.8q-7.5-1.2-8.5-3.7t-4-3.7q-3-1.3-13.5-2.3t-14.5.5-11.5,2.5-6,1.5-5,1.5l-6.5,1-1,.5-1,.5-1,.3-1,.2-3.5-.2q-3.5-.3-9-1.6-5.5-1.2-5.3-2.7 .3-1.5-2.4-3-2.8-1.5-2.8-2.5t-10.5-2.8q-10.5-1.7-22-3.2t-15-2.5-6-3-20-5.5-26.5-6.5-54.5-12-62-10.3l-16.5-1.2-.5-.2q-.5-.3-9-2.3t-18.5-4.5-18-2.5-7.2.7q.7.8 0,1.6-.8.7-5.8,4.2t-11,5-14.5,1.5-10,1.7q-1.5,1.8-2.5,1.8t-1.2,1q-.3,1-13,3.8-12.8,2.7-13.6,4.4-.7,1.8-6,3.3l-5.2,1.5v1 1l-1.5.2-1.5.3-.2.3-.3.2-.3.2-.2.3-.2.3-.3.2-.3.2-.2.3v.3 .2l-.5-.2q-.5-.3-4.5-1.3t-4.8-.7q-.7.2-10.4-3-9.8-3.3-15.8-7.3t-9.5-9.3q-3.5-5.2-4.5-5.2h-1l-.2,1-.3,1-.3-1.5-.2-1.5h.2 .3l.3-.2 .2-.3 .2-.3 .3-.2 .3-.2 .2-.3 1-.3q1-.2 2.5-3 1.5-2.7 6-3.2t10.5-.5h6l.2.3 .3.2 .3-.2 .2-.3 .2-.3 .3-.2 .3.2 .2.3 .2.3 .3.2 .3-.2 .2-.3 .2-.3 .3-.2 .3-.2 .2-.3-1-.5-1-.5-2-.5-2-.5-.2-.3-.3-.2-.3-.2-.2-.3-1.5-.5q-1.5-.5-13-2.5t-18-4.7q-6.5-2.8-6.5-3.8t-1-1.5l-1-.5-.2-.5-.3-.5-.3-.2-.2-.3-.2-.3-.3-.2-.3-.2-.2-.3-.2-.3-.3-.2-.5-1-.5-1-.3-.2-.2-.3-.2-.3-.3-.2-.5-1q-.5-1-4-6l-3.5-5-.3-.2-.2-.3-.2-.3-.3-.2-.3-.2-.2-.3-.2-.3-.3-.2-.5-1.5-.5-1.5-.3-.2-.2-.3-.2-.3-.3-.2v-1-1l.3.2 .2.3 1,.3 1,.2v1 1l13,.8q13,.7 17,2.7t14,4 13,1.5 1-1 3.2-2.2q5.3-1.8 4-4-1.2-2.3 1-2.6 2.3-.2 2-.4-.2-.3-1.7-.8l-1.5-.5 9-2q9-2 45,3t47.5,5 15,1.5 8.5,1.8z" fill="#625179" fill-rule="evenodd" stroke="#625179" stroke-width=".5"/>
 <path d="m406,575.2 5-.2v.2 .3l1,.5 1,.5 1,.5 1,.5 .2.3 .3.2 .3.2 .2.3 23,1.5q23,1.5 25.2,2.8 2.3,1.2 2.8,3.7t1.8,3q1.2.5 1.2,1.5t1,1 1.8,2q.7,2 .7,5.5t.3,5q.2,1.5 1.2,1.5t1,1.5 .8,2q.7.5 1.4,2 .8,1.5 13.3,7.7 12.5,6.3 26,7.8t36-2.5 27-5.5 18.5-3.5 37.8-9.3q23.7-7.2 25.4-7.7 1.8-.5 1.8-1.5t1.5-1.8q1.5-.7 3.5-1.2l2-.5 1-.5 1-.5 1-.5 1-.5v-.3-.2l14-1.8q14-1.7 25-4.2t12-2.8l1-.2 1.5-.2 1.5-.3 12,.7q12,.8 12,1.8t47.5,1.2q47.5.3 48.5,0l1-.2 2-.2 2-.3 .2-.3 .3-.2 .3.2 .2.3 9-.5q9-.5 14.5-.5h7.5 2l-1.5.5-1.5.5 .2.3 .3.2 .3,1q.2,1 3.2,1h3v.2 .3l-1.5.5-1.5.5-1.5.5-1.5.5-.2.3-.3.2-.3.2-.2.3-.2.3-.3.2-.3.2-.2.3-.2.3-.3.2-.3.2-.2.3 1.5.3 1.5.2v1 1l5,.2 5,.3 1,.5 1,.5 1,.5 1,.5 1,.5 1,.5v.3 .2l-3.5.2-3.5.3-3.5.5q-3.5.5-4.5,1t-12,2-18.5,4-22.5,3.5l-15,1-1,.5-1,.5 1.5.5 1.5.5-1,.3-1,.2 .2,1 .3,1 .3.2 .2.3h1 1 4 4l1,.5 1,.5 .2.3 .3.2 .3.2 .2.3 .2.3 .3.2 .3.2 .2.3-1.5.5-3,1-1.5.5-.2.3-.3.2-.3.2-.2.3 12.5,2.5q12.5,2.5 18.5,2.8 6,.2 6,1.2t3,1.8q3,.7 4.5,1.2l1.5.5 .2.3 .3.2 .3.2 .2.3 .2.3 .3.2 .3.2 .2.3 .2.3 .3.2 .3,1 .2,1-1.2.5q-1.3.5-2,3.7-.8,3.3-8.8,10.8t-12.2,11.2q-4.3,3.8-5.6,6.6-1.2,2.7-6.7,7.7t-6.5,5.3q-1,.2 0,4.4 1,4.3-.2,8.6-1.3,4.2-.8,11.7t3,14.5 2,10-3.2,7.8q-2.8,4.7-6.6,7.4-3.7,2.8-11.4,15.6-7.8,12.7-11.3,14.4-3.5,1.8-6.5,5-3,3.3-23.5,3.8l-20.5.5 3,.5 3,.5-.2.3-.3.2-.3.2-.2.3-7.5.3-7.5.2v-.2-.3l1-.5 1-.5-1-.5-1-.5 2.8-.7q2.7-.8 2-1.6-.8-.7 1.7-1.2l2.5-.5-1-.5q-1-.5-.8-.8 .3-.2-1-.7-1.2-.5-1-1.5 .3-1 2.6-.8l2.2.3-1.5-.5-1.5-.5 .2-.3 .3-.2 .3-.2 .2-.3v-.3-.2l.5-.2q.5-.3 1-.3t6.5-2.7q6-2.8 6.2-3.8 .3-1 1.6-1.5 1.2-.5 1.4-1.5 .3-1 5-5.8 4.8-4.7 6.8-8.2t2.8-6.8q.7-3.2-.8-6.2t-12.8-8.8q-11.2-5.7-20.7-6.7t-26-6.5-17.5-5-9.5-1-21-1.5-16,2.7q-3.5,2.8-7.5,13.3t-5.5,11l-1.5.5-2-.2q-2-.3-9-.3t-27-5-25.8-8.3q-5.7-3.2-7.7-9.2l-2-6-.5,1q-.5,1-.8,1.2-.2.3-3.2,1.3l-3,1-.2-.3-.3-.2v-1.5-1.5l.5-1.5q.5-1.5 3-7l2.5-5.5 .3-1 .2-1h-1.5-1.5v-1.5-1.5l-1-.2-1-.3h-3q-3,0-5,.5t-29,1-32.5,1-20.5,5-21.5,4.5-20,.5-23.5,4.5-20.5,8-25.5,4.3l-15,.2-.2-.5-.3-.5-.3-.2-.2-.3h-3-3-3q-3,0-16.2-2.3-13.3-2.2-24-6-10.8-3.7-20.3-4.7l-9.5-1h-1-1-2-2l.2-.3 .3-.2 .3-.2 .2-.3 1-.5 1-.5 1.5-.5 1.5-.5 2.5-.5 2.5-.5-2.5-.5q-2.5-.5-2.3-.8l.3-.2v-1-1l-.3-.2-.2-.3 1.5-.5 1.5-.5 1-.5 1-.5-1-.5-1-.5h-6q-6,0-10,.7l-4,.8v-1-1l-1.5-.2-1.5-.3-1-.5-1-.5 2-.5 2-.5 .2-.3 .3-.2 .3-.2 .2-.3-1-.3-1-.2 .2-1.5 .3-1.5 .5-1q.5-1 .8-1.2 .2-.3 18.2-4.3t32.5-9.5 27.5-15.5 17.5-12.7q4.5-2.8 4.7-4.8 .3-2 1.6-3.2 1.2-1.3 1.4-4 .3-2.8.8-4.3t1.2-3.5q.8-2-.2-2t-.2-2q.7-2 .4-4.5-.2-2.5-1.2-2.7-1-.3-.2-1 .7-.8 0-1.6-.8-.7-.8-2.4 0-1.8-1.2-2.8-1.3-1-6-3l-4.8-2-.2-1.5-.3-1.5-.3-.2-.2-.3 1-.5 1-.5-1.5-.5-1.5-.5-.2-.3-.3-.2-.3-.2-.2-.3-2-.5q-2-.5-8-2.5l-6-2-2-.5-2-.5-1.5-.5-1.5-.5-.2-.3-.3-.2-.3-.2-.2-.3v-.3-.2l20.5-.2q20.5-.3 23,.4 2.5.8 2.5-.2t5-.2q5,.7 7.5.4 2.5-.2 2-1.4-.5-1.3 5.3-2 5.7-.8 7-1.6 1.2-.7 6.7-1.2t10.5-.8z" fill="#5b6897" fill-rule="evenodd" stroke="#5b6897" stroke-width=".5"/>
 <path d="m323,390.8 1,.2v1 1l2-.2 2-.3 .2-.3 .3-.2 .3-.2 .2-.3 .2-.3 .3-.2 .3-.2 .2-.3v-.3-.2l4-.8q4-.7 10.2,1.6 6.3,2.2 24.8,2.7t21.2-.3q2.8-.7 8.3.6 5.5,1.2 6,2.4 .5,1.3 3.7,2 3.3.8 3.6,1.8 .2,1 14.2-.2 14-1.3 16.2-2 2.3-.8 5.6-.6 3.2.3 8.7,1.3t11-.5 6-1.8l.5-.2v.2 .3l2,.5 2,.5 1.5.5 1.5.5 .2.3 .3.2 .3.2 .2.3 .2.3 .3.2 .3.2 .2.3 .2.3 .3.2 .3.2 .2.3 .2.3 .3.2v.5 .5l-.3.2-.2.3 .2.3 .3.2v.5 .5l-.3.2-.2.3-.2.3-.3.2-.3.2-.2.3-.2.3-.3.2-.3.2-.2.3-.2.3-.3.2-.3.2-.2.3-.2.3-.3.2-.3.2q-.2.3-.7.8t-6.5,3.5-10.2,1.3q-4.3-1.8-4.8-.3t-8.2,2.3q-7.8.7-11.3.7t-4.3.3q-.7.2 0,.7 .8.5-.2,1.7-1,1.3-8.8,1l-7.7-.2-.3.2-.2.3 .2.3 .3.2 .3.2 .2.3 .2.3 .3.2 .3.2q.2.3-1.3.6l-1.5.2-.5,4.2q-.5,4.3 1.5,4.6 2,.2 2,1.2t-1,1.2q-1,.3.8,1 1.7.8 1.4,2-.2,1.3.8,1.6 1,.2 1,2.7t-1,2.5-3,3.8q-2,3.7-2.5,5-.5,1.2-5,1.2h-4.5l-42-.2q-42-.3-164-.3h-122l-1,.3-1,.2v1 1l3,.2 3,.3 1,.3 1,.2v1 1l-2,.2-2,.3-8,.5q-8,.5-21.5,1t-22.5,1.8q-9,1.2-9,.2t-6-1.5-6.2-1.5q-.3-1-1.6-.2l-1.2.7-1.5.5-1.5.5-.5.3-.5.2v-32.5-32.5h1.5 1.5v1q0,1 3,.5t4,1.7q1,2.3 2,2.6 1,.2 1.5-1 .5-1.3 5-.3t6,2 15.5,1 15.5-1 7.3.3q5.7,1.2 9,2 3.2.7 14.2.2t15-3.5 7.5-2.5 5,1 5,0l3.5-.5 3-.5 3-.5 .2-.3 .3-.2 .3-.2 .2-.3 .2-.3 .3-.2 .3-.2 .2-.3 .2-.3 .3-.2 .3-.2 .2-.3v-.3-.2l7.5-1.2q7.5-1.3 13-1.3t21.5-4.5 22.5-5.5 8.5-1h2l.2.3 .3.2 .3.2q.2.3.7.6l.5.2v.2q0,.3.5.6l.5.2 6.5-1.5q6.5-1.5 6.5-.5t8-.2q8-1.3 16.5.2t13.5,1.5 11,1 11.5,1h8q2.5,0 3.5-.5t5.8-.2q4.7.2 6.4,3 1.8,2.7 2.8,3 1,.2 1.5-1 .5-1.3 6-1.3t6.5.3z" fill="#180f11" fill-rule="evenodd" stroke="#180f11" stroke-width=".5"/>
 <path d="m387,503.8v.2l-6.5.8q-6.5.7-7,1.2t.7,1.2q1.3.8-1.4,2.6-2.8,1.7-5.6,2.4-2.7.8-10.4,2.3-7.8,1.5-8.6,6.5-.7,5-2.2,8t-1,5.5 1.5,5 4.3,4.7q3.2,2.3 15.2,3.3t18,4.5 7.5,3.8l1.5.2v.2q0,.3.5.6l.5.2v.2q0,.3.5.6l.5.2 .5.8q.5.7 1,1l.5.2v.2q0,.3.5.6l.5.2 2.5,1q2.5,1 2.5,2t4.8,2.5q4.7,1.5 5,1.7l.2.3 2,.5 2,.5 1.5.3 1.5.2v.2 .3l-2.5.5-2.5.5-.2.3-.3.2-.3.2-.2.3-1,.5-1,.5-.2.3-.3.2-.3.5-.2.5-5,.2q-5,.3-10.5.8t-6.7,1.2q-1.3.8-7,1.6-5.8.7-5.3,2 .5,1.2-2,1.4-2.5.3-7.5-.4-5-.8-5,.2t-2.5.2q-2.5-.7-23-.4l-20.5.2-1-.2q-1-.3-8.5-1.8t-25.5-2.5-33.5-4-36-5.5-33.5-5.5-39.5-5-37-4.7q-10.5-2.8-10.5-3.8t-1.5-1.2q-1.5-.3-5.3-5-3.7-4.8-4.4-6l-.8-1.3 .2-.3q.3-.2.3-.7t1.3-1q1.2-.5 1-1.5-.3-1 3.4-4.2 3.8-3.3 4.8-5.6 1-2.2 2.2-2.7 1.3-.5 8.6-2.3 7.2-1.7 15.7-2.2t27.5-1.5l19-1-.2-.3-.3-.2-.3-.2-.2-.3 .2-.3 .3-.2 .3-.2 .2-.3-.2-.3-.3-.2-.3-.2-.2-.3 .2-.3 .3-.2 .3-.2 .2-.3 1.5-.5 1.5-.5-.2-.3-.3-.2-.3-.2-.2-.3-.2-.3-.3-.2-.3-.2-.2-.3-1-.3-1-.2v-1-1l1,.2 1,.3 .2.3 .3.2 .3.2 .2.3 5.5,2.7q5.5,2.8 5.5,3.8t22.5,1.8q22.5.7 33.5.7h18q7,0 9,1t4.2-1.7q2.3-2.8 2-5.3-.2-2.5 18.8-1.5t20-.8q1-1.7 8-3.2t40.2-1.2q33.3.2 33,1.2-.2,1 .8,1.2 1,.3 1,.6z" fill="#775562" fill-rule="evenodd" stroke="#775562" stroke-width=".5"/>
 <path d="m534,393.8v.2l-.5.2-.5.3 .2.3 .3.2 .3.2 .2.3 .2.3 .3.2 .3.2 .2.3 2.2,3.3q2.3,3.2-4.2,9.7t-9.2,13.3q-2.8,6.7-3.8,7-1,.2-2.2,4.7-1.3,4.5 0,7.3 1.2,2.7 4,4.4 2.7,1.8 2.4,2.8-.2,1 .8,1.2l1,.3 .2.3 .3.2 .3.2 .2.3-1,.3-1,.2v2 2l-1-.2-1-.3-.2-.3-.3-.2-.3.2-.2.3h-2q-2,0-8,.5l-6,.5h-1-1l-.2.3-.3.2-.3.2-.2.3-.2.3-.3.2-.3.2-.2.3 1,.5 1,.5v.3 .2l-3,.2q-3,.3-43-.2t-39.2-1.2q.7-.8-5-1.6l-5.8-.7-1-.5-1-.5v-.3-.2h4.5q4.5,0 5-1.2 .5-1.3 2.5-5 2-3.8 3-3.8t1-2.5-1-2.7q-1-.3-.8-1.6 .3-1.2-1.4-2-1.8-.7-.8-1 1-.2 1-1.2t-1.8-1.5q-1.7-.5-2.4-3.5l-.8-3h1q1,0 1-1v-1l1.5-.2q1.5-.3 1.3-.6l-.3-.2-.3-.2-.2-.3-.2-.3-.3-.2-.3-.2-.2-.3 .2-.3 .3-.2 7.7.2q7.8.3 8.8-1 1-1.2.2-1.7-.7-.5 0-.7 .8-.3 4.3-.3t11.3-1.7q7.7-1.8 8.4-2 .8-.3 4.8,1.2t10-1.5 6.5-3.5 .7-.8l.3-.2 .3-.2 .2-.3 .2-.3 .3-.2 .3-.2 .2-.3 .2-.3 .3-.2 .3-.2 .2-.3 .2-.3 .3-.2 .3-.2 .2-.3 .2-.3 .3-.2v-.5-.5l-.3-.2-.2-.3 .2-.3 .3-.2v-.5-.5l-.3-.2-.2-.3-.2-.3-.3-.2-.3-.2-.2-.3-.2-.3-.3-.2-.3-.2-.2-.3-.2-.3-.3-.2-.3-.2-.2-.3-1.5-.5-1.5-.5-2-.5-2-.5v-.3-.2-.2-.3l.2-.3 .3-.2 .3-.2 .2-.3h1.5 1.5l.2.3 .3.2 .3-.2 .2-.3h5q5,0 8,.5t4.5-.2q1.5-.8 2.5-2 1-1.3 3.8.4 2.7,1.8 3,2.8 .2,1 3.2.2 3-.7 6,1.3t7,2.5 4.8.2q.7-.2 1-2.4 .2-2.3 2.2-2.6 2-.2 2-1.2t1-.8q1,.3 1,.6zm-76.8,23q-.2-.3 0-.6 .3-.2.3.3t-.3.3z" fill="#261617" fill-rule="evenodd" stroke="#261617" stroke-width=".5"/>
 <path d="m437,91.8 1,.2v.2 .3l1,.5 1,.5 .2.3 .3.2 .3.2 .2.3 .2.3 .3.2 .3.2 .2.3 1,.5 1,.5 .2.3 .3.2 .3.2 .2.3 5.5,2q5.5,2 11-.5t13.5-2 14,2.5 16.5,2.5 15.5,2 29.5,0 29.5-.5 6,1.5l1,.5 1,.5 1,.5 .2.3 .3.2 .5,1 .5,1 .3.2 .2.3 .2.3 .3.2 .3.2 .2.3 .2.3 .3.2v1 1l-.3.2-.2.3-1,.5-1,.5-1,.5-1,.5-.2.3-.3.2-.3.2-.2.3-2,.5q-2,.5-32,1.5t-50,3-34,4.5-35,3-25,2.5-6.5,4.7q-2.5,2.8-8.5,4-6,1.3-10,.3t-4.8-3.7q-.7-2.8-4.7-5.3l-4-2.5-.3-.2-.2-.3-1.5-.5-1.5-.5-1-.5-1-.5-.2-.3-.3-.2-.3-.2-.2-.3-.2-.3-.3-.2h-.3-.2l-.5-.2q-.5-.3-1-.3t-6-1.5-12.5-5.5-12-6.5l-5-2.5-.2-.3-.3-.2v-1.5-1.5l.3-.2 .2-.3 .2-.3 .3-.2 .3-.2 .2-.3 .2-.3 .3-.2 .3-.2 .2-.3 .2-.3 .3-.2 1.3-.5q1.2-.5 3-3.5 1.7-3 2-3.5l.2-.5 1.5-.2 1.5-.3 .2-.3 .3-.2 .3-.2 .2-.3 1.5-.5 1.5-.5h1.5 1.5l.2.3 .3.2 .3.2 .2.3 .2.3 .3.2 .3.2 .2.3 .2.3 .3.2v3q0,3-1.5,4l-1.5,1-.3.2-.2.3-.2.3-.3.2-.3.2-.2.3 1,.5 1,.5h1 1l1.5-.5 1.5-.5 3.2-1.7q3.3-1.8 3.6-2.8 .2-1 7.7-4.2 7.5-3.3 16-4.3t12,0 7.5.7l4-.2 .2-1 .3-1 .3-.2 .2-.3 .2-.3 .3-.2v-.5-.5l-.3-.2-.2-.3-.2-.3-.3-.2-.3-.2-.2-.3-.2-.3q-.3-.2-2.3-2.2l-2-2-.5-1.5-.5-1.5-.5-1-.5-1-.3-1-.2-1h1 1l.2,1 .3,1 .3.2 .2.3 .2.3 .3.2 .3.2 .2.3 .2.3 .3.2 .3.2 .2.3 .2.3 .3.2 .3-.2 .2-.3 1-.5q1-.5-.5-.8-1.5-.2-1.5-3 0-2.7 1.2-2.4 1.3.2 1.6,1.7 .2,1.5 9.4,4.5 9.3,3 10.6,5 1.2,2 5.2,3.5t5,3.3q1,1.7 2,2zm-29.8-12q-.2-.3 0-.6 .3-.2.3.3t-.3.3z" fill="#7b79be" fill-rule="evenodd" stroke="#7b79be" stroke-width=".5"/>
 <path d="m243.5,37.8 30.5,1.2-.5.2q-.5.3-7,1.8t-14.5,1.5h-8l-4,.5-4,.5 6,1q6,1 10,1.5l4,.5-.2.3-.3.2-.3.2-.2.3-2,.5-2,.5-2,.5q-2,.5.5,1t.3,1.2q-2.3.8-7.6,2.6l-5.2,1.7-1,.5-1,.5-.2.3-.3.2v1.5 1.5l.3-.2 .2-.3h1 1l-.2.3-.3.2-.3,1.5-.2,1.5 2-.8q2-.7 3-1.2l1-.5 3-1.3q3-1.2 3-.2t-1,1.2q-1,.3-2.5.8l-1.5.5-.2.3-.3.2-.7,2.8q-.8,2.7.2,2.4 1-.2.8,1.8-.3,2-.8,2.5t-1,1.5l-.5,1-.3.2-.2.3h1 1l1.5-1q1.5-1 2.5-1h1l-.5.5q-.5.5.5,1l1,.5-1,.3-1,.2v1 1l1.5.2q1.5.3-1.5,1.8l-3,1.5-1,.5-1,.5 .2.3 .3.2 .3.2 .2.3 7.5,1.3q7.5,1.2 8,3 .5,1.7 1.5,2.2l1,.5 .2.3 .3.2 .3.2 .2.3 2.5.5 2.5.5-1,.5-1,.5-1.5.5-1.5.5-.2.3q-.3.2-.6,1.2-.2,1-5.2,2.8l-5,1.7-1,.5-1,.5-.2.3-.3.2-.3.2-.2.3-.2.3-.3.2-.3.2-.2.3-.2.3-.3.2-.3.2-.2.3-.2.3-.3.2-.3.2-.2.3v.3 .2l-.5.2-.5.3-1,.5-1,.5-.2.3-.3.2-.5,2-.5,2-.3.2-.2.3-.2.3-.3.2v1 1l.3.2 .2.3 1.5.5 1.5.5 6.5,3q6.5,3 9,3.5l2.5.5 1.5.5 1.5.5 1,.5 1,.5-3.5.5q-3.5.5-5.3,1.2l-1.7.8-.3.2-.2.3-1,.5-1,.5 .2.3 .3.2v.5 .5l-.3.2-.2.3 .2.3 .3.2 .5,1 .5,1 .3.2 .2.3 1,.5 1,.5 .2.3 .3.2 .3.2 .2.3 16.5,4q16.5,4 34,9t29.5,6 26.5,10 21,13.5 6.7,4.8l.3.2 .3.2 .2.3 .2.3 .3.2 .3.2 .2.3 .2.3 .3.2 .3.2 .2.3 1,.5 1,.5 1,.3 1,.2v.2q0,.3.5.6l.5.2 2.8,2q2.7,2 3,3 .2,1 1.2,1t1,1.8q0,1.7 5.5,6.2t15,6.5 29.5,2.5 28,4.5 17,9 10,5.5l1,.5 .2.3 .3.2 .3.2 .2.3 .2.3 .3.2 .3.2 .2.3 .2.3 .3.2 .3.2 .2.3 1.5.5 1.5.5v.3 .2l-5-.2q-5-.3-8.5-1.8t-15-1.5-47.5-5-45-3l-9,2 1.5.5q1.5.5 1.7.8 .3.2-2,.4-2.2.3-1,2.6 1.3,2.2-4,4-5.2,1.7-3.2,2.2t-1,1-13-1.5-14-4-17.5-2.7l-13.5-.8 .2,1.5 .3,1.5 .3.2 .2.3 .2.3 .3.2 .3.2 .2.3 .2.3 .3.2 3.5,5q3.5,5 4,6l.5,1 .3.2 .2.3 .2.3 .3.2 .5,1 .5,1 .3.2 .2.3 .2.3 .3.2 .3.2 .2.3 .2.3 .3.2 .3.5 .2.5-1-.2-1-.3-.2-.3-.3-.2-.3-.2-.2-.3-1-.5-1-.5-.2-.3-.3-.2-.3-.2-.2-.3-1-.5-1-.5-.2-.3q-.3-.2-4.6-2.4-4.2-2.3-9.2-6.8t-7.8-6.8q-2.7-2.2-7-5-4.2-2.7-9-3.4-4.7-.8-6.4-1-1.8-.3-2.6-1.6-.7-1.2-5.2-2.2t-6.8-1q-2.2,0-2.4-1-.3-1-4-2.8-3.8-1.7-20.3-4.2l-16.5-2.5-2.5-.3-2.5-.2v-.2q0-.3-2.5-.8t-14.5-6.5-16-8.5-7.5-6.2q-3.5-3.8-4.5-4-1-.3-3.8-5-2.7-4.8-3-15.8-.2-11-8.7-18.8-8.5-7.7-13-13-4.5-5.2-5.5-5.2t-1-1-11-9.5-14.8-14q-3.7-5.5-4.4-11-.8-5.5 1.2-5.5t2.2-1q.3-1 3-2 2.8-1 3-2 .3-1 3-2.8 2.8-1.7 6-5 3.3-3.2 15.8-7.7t21.8-3.3q9.2,1.3 18.7,2 9.5.8 10.3-.7 .7-1.5 1.2-7t2.5-8 6.7-4.3q4.8-1.7 35.3-.4z" fill="#4e578c" fill-rule="evenodd" stroke="#4e578c" stroke-width=".5"/>
 <path d="m990,170.2 2-.2 .8,7q.7,7 1.2,8l.5,1 .3.2 .2.3 .2.3 .3.2 .5,1 .5,1 .3.2 .2.3h1.5 1.5l-1-.3q-1-.2-1.8-3.7-.7-3.5.3-1.5l1,2 .3.2 .2.3 .2.3 .3.2 .3.2 .2.3 4.5,2q4.5,2 4,1.5t1-1 4.5-.5h3l3,.5 3,.5h1.5 1.5v-.3-.2l.5.2q.5.3 2,.6l1.5.2-1.2,2.5q-1.3,2.5-1.6,5.5-.2,3 1.8,3.5t2,2 5.8,2q5.7.5 6,2.5 .2,2 3.7,2t3.5,1 7.2,1q7.3,0 7-.8-.2-.7 2.8-4 3-3.2 4-3.2t1.5-.8q.5-.7 3.3-2 2.7-1.2 4.2-3.2t1.8-1q.2,1 6.7.2 6.5-.7 15.5,3.3t17.5,5.7q8.5,1.8 8.5,8.6 0,6.7 3,8.2t16.5,3.5 25.7,5.3q12.3,3.2 17.6,5 5.2,1.7 13.2,3.7t9,3 5.5.5 12-.5h17q9.5,0 11-.5t1.7-.8l.3-.2 .3-.2 .2-.3 .2-.3 .3-.2 .3-.2 .2-.3 .5-.3 .5-.2v51 51h-.2q-.3,0-.8-1t-1,.5l-.5,1.5-.3.2-.2.3-3.5.5q-3.5.5-5.5.5t0-1 .5-1.5-6.5-.5-6,1-23.2,1.7q-22.3.8-42.3.3t-28.3-2.7q-8.2-2.3-25.7-2.6l-17.5-.2-13-.2q-13-.3-47-3.6l-34-3.2-.2-.5-.3-.5-.3-.2-.2-.3-1-.3-1-.2-.2-1-.3-1-.5-1-.5-1-.3-.2-.2-.3-.2-.3-.3-.2-.3-.2-.2-.3 .2-.3 .3-.2v-1-1-2.5-2.5l.5-1 .5-1 .3-.2 .2-.3 1.5-.5q1.5-.5 14.5-1l13-.5v-.3-.2l14,1.8q14,1.7 21.5,1.7h7.5l3.5-.5 3.5-.5 .2-.3 .3-.2v-.5-.5l-.3-.2-.2-.3-.2-.3-.3-.2-.3-.2-.2-.3-1-.5-1-.5-1-.5-1-.5-2-.5q-2-.5-9-3t-28.5-7.2q-21.5-4.8-21.5-5.8t-9.5-5.2q-9.5-4.3-24-6.8t-20.5-5-7-5.2q-1-2.8-2-2.8t-1.2-1q-.3-1-12.6-8.8-12.2-7.7-15.4-11-3.3-3.2-6-4.4-2.8-1.3-3.8-3.6-1-2.2-3-2.2h-2l-.2-1-.3-1v-1.5-1.5l.3-.2 .2-.3 1-.5 1-.5 1-.5 1-.5 10,.5q10,.5 10.5,1.8 .5,1.2 14.5,1 14-.3 16.5-.8l2.5-.5 .2-.3 .3-.2 .3-.2 .2-.3 .2-.3 .3-.2 .3-.2 .2-.3 .2-.3 .3-.2 .3-.2 .2-.3 .2-.3 .3-.2v-1-1l-.5-1-.5-1-.3-.2-.2-.3-.2-.3-.3-.2-.3-.2-.2-.3-1-.5q-1-.5-6-1.5l-5-1-.2-.3-.3-.2-.3-.2-.2-.3-.2-.3-.3-.2-.3-1.5-.2-1.5 1-.2 1-.3 .2-.3 .3-.2 .3-.2 .2-.3 2.5-.3q2.5-.2 2.5-2.2t1.2-2.5q1.3-.5 3.6-4.3 2.2-3.7 3.2-4 1-.2 1.5-4.7t1.5-4.5 2.2-4.5q1.3-4.5.6-8.3-.8-3.7-4.8-4l-4-.2-.2-.5-.3-.5-.3-.2-.2-.3 3.5-.5 3.5-.5 6-1q6-1 8-1.3z" fill="#443e5d" fill-rule="evenodd" stroke="#443e5d" stroke-width=".5"/>
 <path d="m795.8,502.5 .2-.5h.2q.3,0 .6,1.5l.2,1.5h3.5 3.5 .2 .3l.3.2 .2.3 .2.3 .3.2 .3,2.5 .2,2.5 2.5.2 2.5.3 3.8-.7q3.7-.8 6.4-3.6 2.8-2.7 3-3l.3-.2 .3-.2 .2-.3h1.5 1.5l.2.3 .3.2 1,4q1,4 5,8.5t6.3,6.7q2.2,2.3 15.7,3.8t15.7.2q2.3-1.2 7-6.4 4.8-5.3 38-1.6 33.3,3.8 34,4.6 .8.7 1.3,1l.5.2v.2q0,.3.5.6l.5.2-.2.5q-.3.5-.3,1.5v1l.5,1 .5,1 .3,2.5q.2,2.5 2.2,3.7 2,1.3 1.2,6.6-.7,5.2-7.2,9.7t-18,9.5-20.2,5.8q-8.8.7-26.8,4-18,3.2-17.8,4.2 .3,1-3.4,2-3.8,1-3.8,2t-2,1.2l-2,.3-1.5.5-1.5.5-1.5.5-1.5.5v.3 .2l-1,.2q-1,.3-48.5,0-47.5-.2-47.5-1.2t-12-1.8l-12-.7-1.5.3-1.5.2v-.2-.3l.2-.3 .3-.2 .3-.2 .2-.3 1-.5 1-.5 1-.5 1-.5 1-.5 1-.5 9.5-1q9.5-1 18-7t22-11.5 16.5-6.5 12-.3q9,.8 9.8-2.2 .7-3 .4-4-.2-1 1.6.5 1.7,1.5 1.7-3v-4.5l-.3.2-.2.3-.2.3-.3.2-.3-.2q-.2-.3-1.2-.3t-1.2-3.3l-.3-3.2-.3.2-.2.3-.2.3-.3.2-.3.2q-.2.3-1.2.6-1,.2-1,1.7t-3.5.3q-3.5-1.3-7-4.3t-5-7-4.5-12.7l-3-8.8h.2q.3,0 .6-.5zm20.4,31.3q-.2-.3 0-.6 .3-.2.3.3t-.3.3z" fill="#8b626c" fill-rule="evenodd" stroke="#8b626c" stroke-width=".5"/>
 <path d="m609.5,73.8-2.5-1.8 10,.8q10,.7 17,4.2t17.5,7 16.7,9.8q6.3,6.2 8.6,10.4 2.2,4.3 10.2,8.3t19.5,5.5 25.5,3.8q14,2.2 14,3.7t1.8,2q1.7.5 1,1.3-.8.7 2.7,1.4 3.5.8 4,2 .5,1.3 3.3,2 2.7.8 5.2,1.8t13.8-2.2q11.2-3.3 17.2-2.6 6,.8 14,11 8,10.3 11.8,13 3.7,2.8 4,3 .2.3 1.2.8l1,.5 .2.3 .3.2 .3.2 .2.3 1,.3 1,.2v.2q0,.3.5.6l.5.2h.2q.3,0 .8,1l.5,1 .3.2 .2.3 .2.3 .3.2 .3.2 .2.3 .2.3 .3.2 .3.2 .2.3 .2.3 .3.2 .3,1 .2,1-1-.2-1-.3h-1-1l.2.3 .3.2v1 1l-.3-.2-.2-.3-.2-.3-.3-.2-.3-.2-.2-.3-.2-.3-.3-.2-.3.2-.2.3-1,.3-1,.2v-.2-.3l-1-.5-1-.5-4.5-.5q-4.5-.5-6.5-1t-13.2-4.2q-11.3-3.8-20-5.3l-8.8-1.5 .2,1.5 .8,4q.5,2.5-4.2,4.3-4.8,1.7-7.8,2.2t-9.5,1-12-1.5-4.5-2.5-26.5-1.5l-27.5-1v-.3-.2h.2 .3l.3-.2 .2-.3 .2-.3 .3-.2 .3-.2 .2-.3 1.5-.5 1.5-.5 .5-.5q.5-.5 1.5-1l1-.5 4-.5 4-.5-1.5-.5-1.5-.5-.2-.3-.3-.2-.3-.2-.2-.3-2.5-.5-2.5-.5-1-.5-1-.5 .2-.3 .3-.2 .3-.2 .2-.3 2.5-.5q2.5-.5 1-.8-1.5-.2-1.5-1.2t2-1.2l2-.3 .2-.3 .3-.2 .3-.2 .2-.3-1.5-.5-1.5-.5-1-.5q-1-.5-6.5-2.5t-14.5-8-11.2-12.7q-2.3-6.8-4.6-8-2.2-1.3-10.4-6.6-8.3-5.2-15-8.7-6.8-3.5-7.6-9.5-.7-6-2.7-9t-4.3-3.8q-2.2-.7-4.7-2.4z" fill="#626baf" fill-rule="evenodd" stroke="#626baf" stroke-width=".5"/>
 <path d="m313.5,89.5h2.5l.2.3 .3.2 .3.2 .2.3 .8.7q.7.8.7,3.8v4 1l.3,1 .2,1 2-.2 2-.3 .2-.3 .3-.2 5.5-4q5.5-4 5.8-3.5l.2.5-.2.5q-.3.5-2,3.5-1.8,3-3,3.5l-1.3.5-.3.2-.2.3-.2.3-.3.2-.3.2-.2.3-.2.3-.3.2-.3.2-.2.3-.2.3-.3.2v1.5 1.5l.3.2 .2.3 5,2.5q5,2.5 12,6.5t12.5,5.5 6,1.5 1,.3l.5.2-.2.5-.3.5-.3.2-.2.3 .2.3 .3.2 .3.2 .2.3 .2.3 .3.2 .5,1 1,2 .5,1 .3.2 .2.3 .2.3 .3.2v.5 .5l-.5,1.5q-.5,1.5-1.2,3.7-.8,2.3-4.8,3-4,.8-2.2,7.8 1.7,7 14.2,14t13.2,9.2q.8,2.3 3.8,5.3t3.2,3.3l.3.2 .3.2 .2.3 .2.3 .3.2 .3.2 .2.3 1,.5 1,.5 .2.3 .3.2 .3.2 .2.3 1,.3 1,.2v1 1l-1-.2-1-.3-.2-.3-.3-.2-.3-.2-.2-.3-1-.5-1-.5-.2-.3-.3-.2-.3-.2-.2-.3-.2-.3-.3-.2-.3-.2-.2-.3-.2-.3-.3-.2-.3-.2q-.2-.3-6.7-4.8t-21-13.5-26.5-10-29.5-6-34-9l-16.5-4-.2-.3-.3-.2-.3-.2-.2-.3-1-.5-1-.5-.2-.3-.3-.2-.5-1-.5-1-.3-.2-.2-.3 .2-.3 .3-.2v-.5-.5l-.3-.2-.2-.3 1-.5 1-.5 .2-.3 .3-.2 1.7-.8q1.8-.7 5.3-1.2l3.5-.5-1-.5-1-.5-1.5-.5-1.5-.5-2.5-.5q-2.5-.5-9-3.5l-6.5-3-1.5-.5-1.5-.5-.2-.3-.3-.2v-1-1l.3-.2 .2-.3 .2-.3 .3-.2 .5-2 .5-2 .3-.2 .2-.3 1-.5 1-.5 .5-.3 .5-.2 1-.2 1-.3 .2-.3 .3-.2 .3-.2 .2-.3 2-.5 2-.5 7.5-1.5q7.5-1.5 13.3-1.8 5.7-.2 10-4.4 4.2-4.3 7.2-5.8t6.8-.8q3.7.8 4,3 .2,2.3 4.2,1.3t5.5-2 4-1z" fill="#6a6daa" fill-rule="evenodd" stroke="#6a6daa" stroke-width=".5"/>
 <path d="m957.5,336.8 2.5.2v.2 .3l2.5.5 2.5.5 6.5.5 6.5.5-4,.5-4,.5-.2.3-.3.2-.3.2-.2.3 1,.3 1,.2v1 1l2.5.5q2.5.5 2.7,1.5l.3,1 .3.2 .2.3 .2.3 .3.2 .3.2 .2.3 .2.3 .3.2v.5 .5l-.3.2-.2.3-1,.5q-1,.5-5,1l-4,.5 1,.5 1,.5 6,1.5q6,1.5 7.5,2t1.7.8l.3.2 .3.2 .2.3 .2.3 .3.2v-3q0-3 4.7-2.8 4.8.3 5.6,1.6 .7,1.2.4,2.7-.2,1.5 1.3,1.7 1.5.3 2.5.6l1,.2v.2 .3l.2.3 .3.2 .3.2 .2.3 .2.3 .3.2 .3.2 .2.3 2.8,1.3q2.7,1.2 3,2.2 .2,1-1.8,1.8-2,.7-1.2,1.4 .7.8.7,3.3t1,2.5 0,1.5-4.3,2.7q-3.2,1.3-3,1.6 .3.2.3,1.2v1l-.3.2-.2.3-.2.3-.3.2-.3.2-.2.3-.2.3-.3.2-.3.2-.2.3v.3 .2l-.5.2q-.5.3-1.5.8t-4.2,1.8q-3.3,1.2-8.6,1.7-5.2.5-5.7-.7-.5-1.3-3-1.3h-7.5q-5,0-6.5,1.7-1.5,1.8-2.5,1.6-1-.3-4.5-.6-3.5-.2-3.5,1.3t-22.5.7q-22.5-.7-25-1.2t-6,1-12.5.5-10.8-3.3l-1.7-2.2-.3-.2-.2-.3h-1.5-1.5l-.2.3-.3.2h-.3-.2v-1-1l1.5-.2 1.5-.3 2-.3 2-.2-.2-1-.3-1-.3-.2-.2-.3-1-.5-1-.5-2-.5q-2-.5-3.2-3.2-1.3-2.8 0-4.8 1.2-2-1.8-2h-3v-1.5-1.5l1-.2q1-.3 3-.6l2-.2v-1-1l-1.5-.2-1.5-.3-1-.5q-1-.5-5-1.2-4-.8-4.8-3.8-.7-3-9.7-10.5t-21.3-9l-12.2-1.5v-.2-.3l-4-.5-4-.5v-.3-.2l1-.2 1-.3 1-.5 1-.5 6.5-1q6.5-1 5-1.5t6-1.5 11.5-2.5 14.5-.5 13.5,2.3q3,1.2 4,3.7t8.5,3.7q7.5,1.3 13,1.8t9,2 24.3,1.2q20.7-.2 20.2-1.7t5.8-2.7q6.2-1.3 8.7-1z" fill="#a06e7a" fill-rule="evenodd" stroke="#a06e7a" stroke-width=".5"/>
 <path d="m1089.5,529.8 2.5.2 .5,2.2q.5,2.3-.3,3-.7.8-1,1l-.2.3-.2.3-.3.2-.3.2-.2.3 .2.3 .3.2 .3.5 .2.5-1,.2q-1,.3-1.2.6-.3.2-3,1.7-2.8,1.5-2.8,3t-1,1.7q-1,.3-3.5,3.6-2.5,3.2-7,5.2t-4.5,3-2.5,2.8q-2.5,1.7-10.5,5.7t-7,4.5-6,1-6.5,2.2q.5,1.8 1.5,2 1,.3-3.5,1.3t-20,0-41.5,0-30,3-26,4.3l-22,2.2h-3q-3,0-3.2-1l-.3-1-.3-.2-.2-.3 1.5-.5 1.5-.5h-2-7.5q-5.5,0-14.5.5l-9,.5-.2-.3-.3-.2-.3.2-.2.3-2,.3-2,.2v-.2-.3l1.5-.5 1.5-.5 1.5-.5 1.5-.5 2-.3q2-.2 2-1.2t3.8-2q3.7-1 3.4-2-.2-1 17.8-4.2 18-3.3 25.5-3.6 7.5-.2 7.5-1.2t1.5-.8q1.5.3 12.7-4.4 11.3-4.8 17.8-9.3t7.2-9.7q.8-5.3-1.2-6.6-2-1.2-2.2-3.7l-.3-2.5-.5-1-.5-1-.3-2-.2-2h1 1l.2,1.5 .3,1.5 .3.2 .2.3 .2.3 .3.2 .3.2 .2.3 2.5.5q2.5.5 4.5,2t3.8,2.2q1.7.8 2.4,2 .8,1.3 5,.6 4.3-.8 4-1.6-.2-.7 4.6-1.4 4.7-.8 6-.3 1.2.5 1.2,1.5t1,1 1,1 5.5,0 6.5-3.8q1-2.7 17-6.7t22.5-5.5 7.5-1.2q1,.2 1.5,1.4 .5,1.3 2.5,1.6 2,.2 2,1.2t7.5,2.8q7.5,1.7 14.5,2.2t9.5.8z" fill="#704e5d" fill-rule="evenodd" stroke="#704e5d" stroke-width=".5"/>
 <path d="m546,329.8 4-.3 14.5,1q14.5,1 17.3,2.3 2.7,1.2 6,5.4 3.2,4.3 6.4,6.6 3.3,2.2 3.3,5.2t17.3,6.2q17.2,3.3 24.2,4.3t16.2.7q9.3-.2 9.6,1.3l.2,1.5h1.5 1.5l28,3.8q28,3.7 32.2,5.4 4.3,1.8 2.6,2.6-1.8.7.2,1 2,.2 2,1.2t5,2.2q5,1.3 12,1.8t8,1l1,.5 1.5.5 1.5.5 .2.3 .3.2 .3,1 .2,1 1,.2 1,.3-.2.3-.3.2-.3.2-.2.3-.2.3-.3.2-.3.2-.2.3-.2.3-.3.2-.3-.2-.2-.3h-1-1v.3 .2l-2-.2q-2-.3-8-.8t-12-.5-25.8-.3q-19.7-.2-22.4,1.3-2.8,1.5-2.8.5t-2.5-1-2.7,1q-.3,1-6,.8-5.8-.3-18.3.7t-19,0-17.5.5-18.5,1-18.5-.5-15-.5-8.2,1.8q-4.3,2.2-7.6,3-3.2.7-4.2-.6l-1-1.2-.2-.5-.3-.5-.3-.2-.2-.3-2-.3q-2-.2-2-1.2t-1-1.2q-1-.3-5.8-3-4.7-2.8-7.4-3.8-2.8-1-2.8-2.5t-9-3.7l-9-2.3-1.5-.3-1.5-.2-.2-1-.3-1-.3-.2-.2-.3 3.5-.5 3.5-.5 7.5-1.5q7.5-1.5 5.5-2.5t5.5-1.3q7.5-.2 7.5-1.2t2-1.2l2-.3 3.5-.5 3.5-.5-1-.5-1-.5-1.5-.5-1.5-.5-.2-.3-.3-.2-.3-.2-.2-.3-1-.5-1-.5-.2-.3q-.3-.2-4-1.2-3.8-1-3.8-2t-9-2.8l-9-1.7-1-.5-1-.5-.2-.3-.3-.2-.3-1-.2-1 2-.2q2-.3 1-.8l-1-.5 .2-.3 .3-.2 1.3-1.2q1.2-1.3 4.2-1.8t1.8-1.8q-1.3-1.2-2-2-.8-.7 3.2-3.2t10-3.5 6-1.3v-.2h2 2l4-.2z" fill="#f9dccf" fill-rule="evenodd" stroke="#f9dccf" stroke-width=".5"/>
 <path d="m704,335.8 3,.2 1,.8q1,.7 2.5,1.2l1.5.5 .2.3 .3.2 .3.2 .2.3 .2.3 .3.2 .5,1 .5,1v2 2l-.3.2-.2.3-.2.3-.3.2-.3.2-.2.3-1.5.5-1.5.5-.2.3-.3.2-.3.2-.2.3-3.5.5q-3.5.5-4.5,1t-14,0-15.5.5l-2.5,1-1,.5-1,.5-1,.5-1,.5-.2.3-.3.2-.3.2-.2.3-.2.3-.3.2-.3.2-.2.3 .2.3 .3.2 .3.2 .2.3 .2.3 .3.2 .3.2 .2.3 1,.5 1,.5 .2.3 .3.2 .3.2 .2.3 .2.3 .3.2v.5 .5l-.3,1-.2,1h-1.5-1.5l-.2-1.5q-.3-1.5-9.6-1.3-9.2.3-16.2-.7t-24.2-4.3q-17.3-3.2-17.3-6.2t-3.3-5.2q-3.2-2.3-6.4-6.6-3.3-4.2-6-5.4-2.8-1.3-17.3-2.3l-14.5-1-4,.3-4,.2v-.2-.3l.2-.3 .3-.2 .3-.2 .2-.3 12-2q12-2 12.5-4.5t2.5-3.5 8.2.3q6.3,1.2 7,3 .8,1.7 6.3,3.7t9,1 9.5-.5 11,2.5 28,3.5 34,2 14.5,1 6.5.8z" fill="#e4abb1" fill-rule="evenodd" stroke="#e4abb1" stroke-width=".5"/>
 <path d="m752.5,775.8-.5.2-1.5-.2q-1.5-.3-12-2.3t-43-2.5-36-2-6.5-3-3.8-2.8q-.7-1.2-2.4-13.7l-1.8-12.5 1.5-.5q1.5-.5 5.5-11t7.5-13.3q3.5-2.7 16-2.7t21,1.5 9.5,1 17.5,5 26,6.5 20.7,6.7q11.3,5.8 12.8,8.8t.8,6.2q-.8,3.3-2.8,6.8t-6.8,8.2q-4.7,4.8-5,5.8-.2,1-1.4,1.5-1.3.5-1.6,1.5-.2,1-6.2,3.8-6,2.7-6.5,2.7t-1,.3z" fill="#7d8cbe" fill-rule="evenodd" stroke="#7d8cbe" stroke-width=".5"/>
 <path d="m420,570.2v-.2l33,.8q33,.7 51.5,3.7t22,3.5 15.5.5h12l2.5-.3 2.5-.2h.2 .3l.3.2 .2.3 .2.3 .3.2 .3.2 .2.3 1.5.5 1.5.5 .2.3 .3.2 .5,1 .5,1 .3.2 .2.3h8q8,0 12.2-2.3 4.3-2.2 10-1.4 5.8.7 15.8,0 10-.8 10.5,0 .5.7 10.5,2.2t17,2.2q7,.8 7.5,1.6 .5.7 2.7.4 2.3-.2 3.8-.7t1.8,1.7q.2,2.3 3.2,2.8l3,.5 1.5.3 1.5.2v.2 .3l-1,.5-1,.5-1,.5-1,.5-2,.5q-2,.5-3.5,1.2-1.5.8-1.5,1.8t-1.8,1.5q-1.7.5-25.4,7.7-23.8,7.3-37.8,9.3t-18.5,3.5-27,5.5-36,2.5-26-7.8q-12.5-6.2-13.3-7.7-.7-1.5-1.4-2-.8-.5-.8-2t-1-1.5-1.2-1.5q-.3-1.5-.3-5t-.7-5.5q-.8-2-1.8-2t-1-1-1.2-1.5q-1.3-.5-1.8-3t-2.8-3.7q-2.2-1.3-25.2-2.8l-23-1.5-.2-.3-.3-.2-.3-.2-.2-.3-1-.5-1-.5-1-.5-1-.5v-.3-.2l.2-.5 .3-.5 .3-.2 .2-.3 1-.5 1-.5 .2-.3 .3-.2 .3-.2 .2-.3 2.5-.5 2.5-.5v-.3z" fill="#9c8091" fill-rule="evenodd" stroke="#9c8091" stroke-width=".5"/>
 <path d="m708,336.8-1-.8 26.5,1.2q26.5,1.3 46,1.3t25.5-.3l6-.2 12.2,1.5q12.3,1.5 21.3,9t9.7,10.5q.8,3 4.8,3.8 4,.7 5,1.2l1,.5 1.5.3 1.5.2v1 1l-2,.2q-2,.3-3,.6l-1,.2v1.5 1.5h3q3,0 1.8,2-1.3,2 0,4.8 1.2,2.7 3.2,3.2l2,.5 1,.5 1,.5 .2.3 .3.2 .3,1 .2,1-2,.2-2,.3-1.5.3-1.5.2v1 1l-1-.2q-1-.3-6-1.3t-6.5-.5-7.5,1-7.5,1.5-4.3,1.3q-2.7.2-6,3-3.2,2.7-5.7,2.4-2.5-.2-2.7-1.2-.3-1-5.6-3.5-5.2-2.5-5.2-1.5t-1,1-1-1-2-1-2.2,1q-.3,1-3,1.5-2.8.5-3.8,2.3-1,1.7-7,1.7t-12-2-11.5-1l-5.5,1-.2-.3-.3-.2-.3-1-.2-1v-.2-.3h1 1l.2.3 .3.2 .3-.2 .2-.3 .2-.3 .3-.2 .3-.2 .2-.3 .2-.3 .3-.2 .3-.2 .2-.3-1-.3-1-.2-.2-1-.3-1-.3-.2-.2-.3-1.5-.5-1.5-.5-1-.5q-1-.5-8-1t-12-1.8q-5-1.2-5-2.2t-2-1.2q-2-.3-.2-1 1.7-.8-2.6-2.6-4.2-1.7-32.2-5.4l-28-3.8 .2-1 .3-1v-.5-.5l-.3-.2-.2-.3-.2-.3-.3-.2-.3-.2-.2-.3-1-.5-1-.5-.2-.3-.3-.2-.3-.2-.2-.3-.2-.3-.3-.2-.3-.2-.2-.3 .2-.3 .3-.2 .3-.2 .2-.3 .2-.3 .3-.2 .3-.2 .2-.3 1-.5 1-.5 1-.5 1-.5 2.5-1q2.5-1 15.5-.5t14,0 4.5-1l3.5-.5 .2-.3 .3-.2 .3-.2 .2-.3 1.5-.5 1.5-.5 .2-.3 .3-.2 .3-.2 .2-.3 .2-.3 .3-.2v-2-2l-.5-1-.5-1-.3-.2-.2-.3-.2-.3-.3-.2-.3-.2-.2-.3-1.5-.5q-1.5-.5-2.5-1.2z" fill="#cd959d" fill-rule="evenodd" stroke="#cd959d" stroke-width=".5"/>
 <path d="m796.2,501-.2,1-.5.2q-.5.3-.5.6v.2l3,8.8q3,8.7 4.5,12.7t5,7 8,2.5 4.7-.8l.3-.2 .3-.2 .2-.3 .2-.3 .3-.2 .3,3.2q.2,3.3 1.2,3.3t1.2.3l.3.2 .3-.2 .2-.3 .2-.3 .3-.2v4.5q0,4.5-1.7,3-1.8-1.5-1.6-.5 .3,1-.4,4-.8,3-9.8,2.2-9-.7-12,.3t-16.5,6.5-22,11.5-18,7l-9.5,1-1,.5-1,.5-1,.5-1,.5-1,.5-1,.5-.2.3-.3.2-.3.2-.2.3v.3 .2l-1,.2q-1,.3-12,2.8t-25,4.2l-14,1.8-1.5-.2-1.5-.3-3-.5q-3-.5-3.2-2.8-.3-2.2-1.8-1.7t-3.8.7q-2.2.3-2.7-.4-.5-.8-7.5-1.6-7-.7-17-2.2t-10.5-2.2q-.5-.8-10.5,0-10,.7-15.8,0-5.7-.8-10,1.4-4.2,2.3-12.2,2.3h-8l-.2-.3-.3-.2-.5-1-.5-1-.3-.2-.2-.3-1.5-.5-1.5-.5-.2-.3-.3-.2-.3-.2-.2-.3-.2-.3-.3-.2h-.3-.2v-.5-.5l1,.2 1,.3h7q7,0 12.8-5.3 5.7-5.2 6-6.2 .2-1 1.2-1t1-1 11.5-5.2q11.5-4.3 24-8.8t20-6 9-2l1.5-.5 1-.5 1-.5 .2-.3 .3-.2v-1.5-1.5l-.3-1-.2-1 1-.2 1-.3-.2-.3-.3-.2-.3-1-.2-1-2-.2-2-.3-1-.5q-1-.5-8.5-1t-14-2-5.5-2-4-5.5-11.5-6.7l-6.5-1.8-.2-.5q-.3-.5-1-1.3l-.8-.7 .2-.3 .3-.2 .5-2 .5-2v-.5-.5-1-1-1-1l-.3-.2-.2-.3-.2-.3-.3-.2-.3-.2-.2-.3-.2-.3-.3-.2-.3-.2-.2-.3v-.3-.2l24,.8q24,.7 40.5.7h31q14.5,0 18.5-.5t42.5-.5 39.3,1.3q.7,1.2.4,2.2zm21,35.8q-.2-.3 0-.6 .3-.2.3.3t-.3.3z" fill="#be8e8c" fill-rule="evenodd" stroke="#be8e8c" stroke-width=".5"/>
 <path d="m1085.5,487.8 .5.2v1q0,1-3.5,1.5l-3.5.5v1 1l6,.8q6,.7 7,2.7t4.2,4.7q3.3,2.8 6,13.8 2.8,11 5.8,11.2l3,.3-.2.3-.3.2-.3.2-.2.3 .2.3 .3.2v.5 .5l-.3,1-.2,1-1.5-.2-1.5-.3-.2-.3q-.3-.2-3.6-.4-3.2-.3-5.2,3.2l-2,3.5-1,.5-1,.5-.2.3-.3.2-.3.2-.2.3-1,.3-1,.2-.2-.5-.3-.5-.3-.2-.2-.3 .2-.3 .3-.2 .3-.2 .2-.3 .2-.3q.3-.2 1-1 .8-.7.3-3l-.5-2.2-2.5-.2q-2.5-.3-9.5-.8t-14.5-2.2q-7.5-1.8-7.5-2.8t-2-1.2q-2-.3-2.5-1.6-.5-1.2-1.5-1.4-1-.3-7.5,1.2t-22.5,5.5-17,6.7q-1,2.8-2,3-1,.3-6.5,1-5.5.8-5.5-1.2t-1.2-2.5q-1.3-.5-6,.3-4.8.7-4.6,1.4 .3.8-4,1.6-4.2.7-5-.6-.7-1.2-2.4-2-1.8-.7-3.8-2.2t-4.5-2l-2.5-.5-.2-.3-.3-.2-.3-.2-.2-.3-.2-.3-.3-.2-.5-1q-.5-1-.8-1h-.2l-.2-.5q-.3-.5-.6-.5h-.2l-.5-.2q-.5-.3-1.3-1-.7-.8-34-4.6-33.2-3.7-38,1.6-4.7,5.2-7,6.4-2.2,1.3-15.7-.2t-15.7-3.8q-2.3-2.2-6.3-6.7t-5-8.5l-1-4-.3-.2-.2-.3h-1.5-1.5l-.2.3-.3.2-.3.2q-.2.3-3,3-2.7,2.8-6.4,3.6l-3.8.7-2.5-.3-2.5-.2-.2-2.5-.3-2.5-.3-.2-.2-.3-.2-.3-.3-.2h-.3-.2v-.2-.3l1-.5 1-.5 .2-.3 .3-.2 .3-.2 .2-.3 7-1.3q7-1.2 7.5-2.4 .5-1.3 45-2.6 44.5-1.2 44.5-.2t3,.8q3-.3 5-1.3t27-.5 35,.2l10-.2v1 1h-7-7v1 1l2.5-.2 2.5-.3 5.8.7q5.7.8 6.4,2 .8,1.3 6,1 5.3-.2 6-2.4 .8-2.3 29.3-4.3t27-3 6-1.7q7.5-.8 7.5-1.8t4.5-1.2q4.5-.3 5,0z" fill="#603c41" fill-rule="evenodd" stroke="#603c41" stroke-width=".5"/>
 <path d="m353,277h1l.2,1.5 .3,1.5 .3-1 .2-1h1q1,0 4.5,5.2 3.5,5.3 9.5,9.3t15.8,7.3q9.7,3.2 10.4,3 .8-.3 4.8.7t4.5,1.3l.5.2 1.5.2 1.5.3 1.5.5 1.5.5 3.2.7q3.3.8 3.6,1.8 .2,1 6.2,1.8 6,.7 10,1.2l4,.5 .2.3 .3.2 .3,1 .2,1 1,.2 1,.3 .2.3 .3.2 .3.2 .2.3 .2.3 .3.2 .3.2 .2.3 .2.3 .3.2v.5 .5l-.5,1-.5,1-.3,1-.2,1-10.5.2q-10.5.3-13,.3t-5.3,1.3q-2.7,1.2-2,2 .8.7-4,2.4-4.7,1.8-10,2.6l-5.2.7 3,.5 3,.5 5.5.5 5.5.5-6.5.5-6.5.5v.3 .2l-.5.2-.5.3 .2.3 .3.2 .3.2 .2.3 .2.3 .3.2 .3.2 .2.3 .2.3 .3.2 .3.2 .2.3 2,1.3q2,1.2 1.5,2.4-.5,1.3.5,1.6l1,.2-.2,1.5q-.3,1.5-.8,2.5t-2.8,1.8q-2.2.7-3.7,3-1.5,2.2-16,2.2h-14.5l-6,.2q-6,.3-7.5,2-1.5,1.8-15.5,1.8h-14l.2,1 .3,1 .3.2 .2.3 .2.3 .3.2 .3.2 .2.3-1.5.5-1.5.5v.3 .2l-.5-.2q-.5-.3-15.5-.8t-27.5-3l-12.5-2.5-1-.5-1-.5-.2-.3-.3-.2-.3-1.5-.2-1.5-1-.2-1-.3-.2-.3-.3-.2-.3-.2-.2-.3 .2-.3 .3-.2 .3-1q.2-1 1.7-1.8 1.5-.7 3.5-1.2l2-.5-3-.5-3-.5-2.5-.5-5-1q-2.5-.5-25.5-2l-23-1.5v-.3-.2l15-.8q15-.7 18.5-1.7t4.5-1.5l1-.5 .2-.3 .3-.2 .3-.2 .2-.3-1-.5q-1-.5-2-.8-1-.2.8-2.2 1.7-2 .4-3.2-1.2-1.3-1.7-3l-.5-1.8 1-.2 1-.3 7-2q7-2 23-1t38-.5 24.5-2l2.5-.5 .2-.3 .3-.2 .3-.2 .2-.3 .2-.3q.3-.2-2-2-2.2-1.7 1-3 3.3-1.2 4.6-1.7 1.2-.5 2.7-2.3 1.5-1.7 2.3-4 .7-2.2 2.2-3.7t2.2-2.7q.8-1.3-.2-10.6-1-9.2 0-9.2z" fill="#7a5570" fill-rule="evenodd" stroke="#7a5570" stroke-width=".5"/>
 <path d="m.5,356.8 .5-.3 20,1.5q20,1.5 43,2.5t23,1.3v.2l-4,.2q-4,.3-11.5,1.3l-7.5,1-.2.3-.3.2-.3.2-.2.3-1,.5-1,.5-1.5.3-1.5.2v1 1l3,.2 3,.3 11,.7q11,.8 11,1.8t6.5,2.8q6.5,1.7 7.5,2.2l1,.5 1,.5 1,.5 .2.3 .3.2 .3.2 .2.3 .2.3 .3.2 .5,1 .5,1v1 1l-.3,1-.2,1-2,.2q-2,.3-4,.8l-2,.5-.2.3-.3.2-.3.2-.2.3 .2.3 .3.2 .3.2 .2.3 1,.5 1,.5 1.5.5 1.5.5 .2.3 .3.2 .3.2 .2.3 7.5,2q7.5,2 14,2.3l6.5.2v.2 .3l-.2.3-.3.2-.3.2-.2.3-.2.3-.3.2-.3.2-.2.3-.2.3-.3.2-.3.2-.2.3-3,.5-3,.5-3.5.5q-3.5.5-5,0t-5-1-7.5,2.5-15,3.5-14.2-.2q-3.3-.8-9-2-5.8-1.3-7.3-.3t-15.5,1-15.5-1-6-2-5,.3q-.5,1.2-1.5,1-1-.3-2-2.6-1-2.2-4-1.7t-3-.5v-1h-1.5-1.5v-20.5-20.5l.5-.2z" fill="#513647" fill-rule="evenodd" stroke="#513647" stroke-width=".5"/>
 <path d="m600.2,511 2.8,1 6.5,1.8q6.5,1.7 11.5,6.7t4,5.5 5.5,2 14,2 8.5,1l1,.5 2,.3 2,.2 .2,1 .3,1 .3.2 .2.3-1,.3-1,.2 .2,1 .3,1v1.5 1.5l-.3.2-.2.3-1,.5-1,.5-1.5.5q-1.5.5-9,2t-20,6-24,8.8q-11.5,4.2-11.5,5.2t-1,1-1.2,1q-.3,1-6,6.2-5.8,5.3-12.8,5.3h-7l-1-.3-1-.2-3.5-.2-3.5-.3-.2-.3-.3-.2-.3-.2-.2-.3-2-.5-4-1q-2-.5-9-5t-10.5-8-4.7-7.2q-1.3-3.8-.3-6.8t5-7 10-9.5 11.3-10.3q5.2-4.7 15.2-5.2t17.5-2.8q7.5-2.2 6.7-3.7-.7-1.5 3-2.3 3.8-.7 5.8-.4 2,.2 2.2,2.2 .3,2 3,3z" fill="#f8d9cb" fill-rule="evenodd" stroke="#f8d9cb" stroke-width=".5"/>
 <path d="m1107.5,341.8-3.5-1.8 17.5.2q17.5.3 25.7,2.6 8.3,2.2 28.3,2.7t42.3-.3q22.2-.7 23.2-1.7t6-1 6.5.5-.5,1.5 0,1 5.5-.5l3.5-.5 .2-.3 .3-.2 .5-1.5q.5-1.5 1-.5t.8,1h.2v27 27l-1.5-.2-1.5-.3-.2-.3q-.3-.2-1-1-.8-.7-6.8,0-6,.8-5.8-.2 .3-1-2.2-6.5t-6.2-6.3q-3.8-.7-5.3-2.4-1.5-1.8-3.5-2.6-2-.7-6.5-1.2t-5.3.8q-.7,1.2-6,3-5.2,1.7-9,2-3.7.2-8.4,4.4-4.8,4.3-11.3,4.8t-13,3.5-10,1.3q-3.5-1.8-4.5-7.8l-1-6-1.5.2-1.5.3-.2.3-.3.2-.3,2q-.2,2-2.7,1.8l-2.5-.3-.2.3-.3.2-.3,2-.2,2h-.2-.3v-4q0-4-1.7-5.8-1.8-1.7-3-5-1.3-3.2-5-5l-3.8-1.7-.2-.3-.3-.2-.3-.2-.2-.3-1-.5-1-.5-.2-.3-.3-.2-.3-.2-.2-.3 .2-.3 .3-.2 .3-1 .2-1 2-.2 2-.3h1 1 6.5 6.5l.2-.3 .3-.2v-.5-.5l-.3-.2-.2-.3 1-.5 1-.5 .2-.3 .3-.2v-.5-.5l-.3-.2-.2-.3 2-.5 2-.5-2-.5-2-.5-11-.3-11-.2-1.5-.2q-1.5-.3-1.3-1 .3-.8-7-1.3l-7.2-.5-.2-1.5q-.3-1.5-.6-3.5-.2-2 .8-2t.5-1.2q-.5-1.3-4-3z" fill="#6a404b" fill-rule="evenodd" stroke="#6a404b" stroke-width=".5"/>
 <path d="m203,340.8 3,.2v.2 .3l23,1.5q23,1.5 25.5,2l5,1 2.5.5 3,.5 3,.5-2,.5q-2,.5-3.5,1.2-1.5.8-1.7,1.8l-.3,1-.3.2-.2.3 .2.3 .3.2 .3.2 .2.3 1,.3 1,.2 .2,1.5 .3,1.5 .3.2 .2.3 1,.5 1,.5 12.5,2.5q12.5,2.5 27.5,3t15.5.8l.5.2h.2 .3l.5,1 .5,1 .3.2 .2.3 .2.3 .3.2 .3.2 .2.3 .2.3 .3.2 10.7,4.2q10.8,4.3 12.3,4.8l1.5.5 .2.3 .3.2 .3.2 .2.3 .2.3 .3.2 .3.2 .2.3 .2.3 .3.2 .3.2 .2.3 .2.3 .3.2 .3.2 .2.3 1,.5 1,.5h-11q-11,0-14.5-.5l-3.5-.5h-2.5-2.5l-1,.5-1,.5 .2.3 .3.2 .3.2 .2.3 .2.3 .3.2 .3.2 .2.3 1,.5 1,.5 .2.3 .3.2 .3.2 .2.3 .2.3 .3.2 .3.2 .2.3 1,.5 1,.5 1,.3 1,.2v.2 .3l-.2.3-.3.2-.3.2-.2.3-.2.3-.3.2-.3.2-.2.3-2,.3-2,.2v-1-1l-1-.2q-1-.3-6.5-.3t-6,1.3q-.5,1.2-1.5,1-1-.3-2.8-3-1.7-2.8-6.4-3-4.8-.3-5.8.2t-3.5.5h-8q-5.5,0-11.5-1t-11-1-13.5-1.5-16.5-.2q-8,1.2-8,.2t-6.5.5l-6.5,1.5-.2-.5q-.3-.5-.6-.5h-.2l-.2-1q-.3-1-2-2.8-1.8-1.7-7.3-3.7t-11.3-.3q-5.7,1.8-6.4,2.3-.8.5-.8-.5t-2-1.2q-2-.3-4-1.8t-7-2.5-5.5-2.7q-.5-1.8-2.5-1.3t-2-.5-2.5-1-2.7-1q-.3-1-26-2.8l-25.8-1.7v-.3-.2l3.5-.2 3.5-.3-1-.3-1-.2v-1-1h3.5 3.5v-1q0-1 3-1.2l3-.3-.2-.3-.3-.2-.3-.2-.2-.3-1-.5q-1-.5-3-1l-2-.5-1-.5-1-.5 1-.5 1-.5 4-2q4-2 3.5-3.3-.5-1.2.5-1.2t1-1-1-1 .5-1.8q1.5-1.7 9.5-1.7t18,1.5 31.5.5 24.5-.7z" fill="#845262" fill-rule="evenodd" stroke="#845262" stroke-width=".5"/>
 <path d="m1128,356.2v-.2l11,.2 11,.3 2,.5 2,.5-2,.5-2,.5 .2.3 .3.2v.5 .5l-.3.2-.2.3-1,.5-1,.5 .2.3 .3.2v.5 .5l-.3.2-.2.3h-6.5-6.5-1-1l-2,.3-2,.2-.2,1-.3,1-.3.2-.2.3 .2.3 .3.2 .3.2 .2.3 1,.5 1,.5 .2.3 .3.2 .3.2 .2.3 3.8,1.7q3.7,1.8 5,5 1.2,3.3 3,5 1.7,1.8 1.7,5.8v4h.3 .2l-.2,1q-.3,1-1.6,2.8-1.2,1.7-3.2,1.7t-10,.7q-8,.8-8.5-2.4l-.5-3.3-1.5-.3-1.5-.2-.2,1q-.3,1-2.3,3t-3.7,2.8l-1.8.7-1.5.3q-1.5.2-1.5-2.8v-3l-2,.2-2,.3-.2.3q-.3.2-1.6,2-1.2,1.7-7.7,2.7t-14.5.5-26.5-.5-23-.5-6.3-1.2q-1.7-.8-5-2l-3.2-1.3-.2-.3-.3-.2-.3-.2-.2-.3-.2-.3-.3-.2-.3.2-.2.3-1,.3-1,.2v-1q0-1-1-1.2-1-.3-1.5.4-.5.8-2.5.6-2-.3-2.5-3l-.5-2.8-1-.2-1-.3-.2-.3-.3-.2-.3.2-.2.3-1,.3-1,.2v-.2-.3l.2-.3 .3-.2 .3-.2 .2-.3 .2-.3 .3-.2 .3-.2 .2-.3 .2-.3 .3-.2v-1q0-1-.3-1.2-.2-.3 3-1.6 3.3-1.2 4.3-2.7t0-1.5-1-2.5-.7-3.3q-.8-.7 1.2-1.4 2-.8 1.8-1.8-.3-1-3-2.2l-2.8-1.3-.2-.3-.3-.2-.3-.2-.2-.3-.2-.3-.3-.2-.3-.2-.2-.3v-.3-.2l1.5.2 1.5.3 11,1q11,1 14.5,3t14,2.3q10.5.2 9-1.6-1.5-1.7 10-1.7t24.7.3q13.3.2 13-2.6-.2-2.7 13.3-3.7t13.5-1.3z" fill="#96585e" fill-rule="evenodd" stroke="#96585e" stroke-width=".5"/>
 <path d="m546.5,278.8 .5.2 1.5,1.2q1.5,1.3 4,1.8l2.5.5-1,.5-1,.5-5,.5q-5,.5-8,2t-1.8,2.2q1.3.8-7.4,6.6-8.8,5.7-9,9.4-.3,3.8 2.4,7.6 2.8,3.7 4,7l1.3,3.2-.5,1-.5,1-.3.2-.2.3-.2.3-.3.2-.3.2-.2.3-1,.5q-1,.5-1.2.8l-.3.2-.3.2-.2.3-.2.3-.3.2-.3.2-.2.3v.3 .2l-.5.2q-.5.3-6,1.3t-11.7,4.3q-6.3,3.2-13,5-6.8,1.7-35.3-.3t-40.5-2.5l-12-.5-3.5-.3-3.5-.2v-.2-.3l6.5-.5 6.5-.5-5.5-.5-5.5-.5-3-.5-3-.5 5.2-.7q5.3-.8 10-2.6 4.8-1.7 4-2.4-.7-.8 2-2 2.8-1.3 5.3-1.3t13-.3l10.5-.2 .2-1 .3-1 .5-1 .5-1v-.5-.5l-.3-.2-.2-.3-.2-.3-.3-.2-.3-.2-.2-.3-.2-.3-.3-.2-.3-.2-.2-.3-2-.3q-2-.2-1.5-1.4l.5-1.3-4-.5q-4-.5-10-1.2-6-.8-6.2-1.8-.3-1-3.6-1.8l-3.2-.7-1.5-.5-1.5-.5-1.5-.3-1.5-.2v-.2-.3l.2-.3 .3-.2 .3-.2 .2-.3 .2-.3 .3-.2 .3-.2 .2-.3 1.5-.3 1.5-.2v-1-1l5.2-1.5q5.3-1.5 6-3.3 .8-1.7 13.6-4.4 12.7-2.8 13-3.8 .2-1 1.2-1t2.5-1.8q1.5-1.7 10-1.7t14.5-1.5 11-5 5.8-4.2q.7-.8 0-1.6-.8-.7 7.2-.7t18,2.5 18.5,4.5 9,2.3z" fill="#8f6e8e" fill-rule="evenodd" stroke="#8f6e8e" stroke-width=".5"/>
 <path d="m522.5,329.2 .5-.2 2,.2 2,.3 5.5.3 5.5.2v.2q0,.3-6,1.3t-10,3.5-3.2,3.2q.7.8 2,2 1.2,1.3-1.8,1.8t-4.2,1.8l-1.3,1.2-.3.2-.2.3 1,.5q1,.5-1,.8l-2,.2 .2,1 .3,1 .3.2 .2.3 1,.5 1,.5 9,1.7q9,1.8 9,2.8t3.8,2q3.7,1 4,1.2l.2.3 1,.5 1,.5 .2.3 .3.2 .3.2 .2.3 1.5.5 1.5.5 1,.5 1,.5-3.5.5-3.5.5-2,.3q-2,.2-2,1.2t-7.5,1.2q-7.5.3-5.5,1.3t-5.5,2.5l-7.5,1.5-3.5.5-3.5.5 .2.3 .3.2 .3,1 .2,1-2.5.2q-2.5.3-6,.8t-16.5-.5-32-1-23.5-1.5-16.5-2-29-3l-17-2.5-1.5-.5-1.5-.5-.2-.3-.3-.2-.3-.2-.2-.3-.2-.3-.3-.2-.3-.2-.2-.3 1-.5 1-.5 .2-.3 .3-.2 .3-.2 .2-.3 1.5-.5 1.5-.5 1-.5 1-.5-.2-.3-.3-.2-.3-.2-.2-.3 1-.5q1-.5 1-.8v-.2h14.5q14.5,0 16-2.2 1.5-2.3 3.7-3 2.3-.8 2.8-1.8t.8-2.5l.2-1.5-1-.2q-1-.3-.5-1.6 .5-1.2-1.5-2.4l-2-1.3-.2-.3-.3-.2-.3-.2-.2-.3-.2-.3-.3-.2-.3-.2-.2-.3-.2-.3-.3-.2-.3-.2-.2-.3 .5-.3 .5-.2 3.5.2 3.5.3 12,.5q12,.5 40.5,2.5t35.3.3q6.7-1.8 13-5 6.2-3.3 11.7-4.3t6-1.3z" fill="#f1b6b4" fill-rule="evenodd" stroke="#f1b6b4" stroke-width=".5"/>
 <path d="m548.5,280.2-1.5-1.2 16.5,1.2q16.5,1.3 62,10.3t54.5,12 26.5,6.5 20,5.5 6,3 15,2.5 22,3.2q10.5,1.8 10.5,2.8t2.8,2.5q2.7,1.5 2.4,3-.2,1.5 5.3,2.7 5.5,1.3 9,1.6l3.5.2v.2 .3l4,.5 4,.5v.3 .2l-6,.2q-6,.3-25.5.3t-46-1.3l-26.5-1.2-3-.2q-3-.3-6.5-.8t-14.5-1-34-2-28-3.5-11-2.5-9.5.5-9-1-6.3-3.7q-.7-1.8-7-3-6.2-1.3-8.2-.3t-2.5,3.5-12.5,4.5l-12,2-.2.3-.3.2-.3.2-.2.3v.3 .2h-2-2l-5.5-.2-5.5-.3-2-.3-2-.2v-.2-.3l.2-.3 .3-.2 .3-.2 .2-.3 .2-.3 .3-.2 .3-.2q.2-.3 1.2-.8l1-.5 .2-.3 .3-.2 .3-.2 .2-.3 .2-.3 .3-.2 .5-1 .5-1-1.3-3.2q-1.2-3.3-4-7-2.7-3.8-2.4-7.6 .2-3.7 9-9.4 8.7-5.8 7.4-6.6-1.2-.7 1.8-2.2t8-2l5-.5 1-.5 1-.5-2.5-.5q-2.5-.5-4-1.8z" fill="#b186a2" fill-rule="evenodd" stroke="#b186a2" stroke-width=".5"/>
 <path d="m83,362.2 4-.2h6.5 6.5v.2 .3l25.8,1.7q25.7,1.8 26,2.8 .2,1 4.7,1.5t5,2.3q.5,1.7 5.5,2.7t7,2.5 4,1.8q2,.2 2,1.2t.8.5q.7-.5 6.4-2.3 5.8-1.7 11.3.3t7.7,4.3q2.3,2.2 2.6,3.2l.2,1h-1-1l-.2-1-.3-1-.3-.2-.2-.3h-2q-2,0-8.5,1t-22.5,5.5-21.5,4.5-13,1.3l-7.5,1.2-6.5-.2q-6.5-.3-14-2.3l-7.5-2-.2-.3-.3-.2-.3-.2-.2-.3-1.5-.5-1.5-.5-1-.5-1-.5-.2-.3-.3-.2-.3-.2-.2-.3 .2-.3 .3-.2 .3-.2 .2-.3 2-.5q2-.5 4-.8l2-.2 .2-1 .3-1v-1-1l-.5-1-.5-1-.3-.2-.2-.3-.2-.3-.3-.2-.3-.2-.2-.3-1-.5-1-.5-1-.5q-1-.5-7.5-2.2-6.5-1.8-6.5-2.8t-11-1.8l-11-.7-3-.3-3-.2v-1-1l1.5-.2 1.5-.3 1-.5 1-.5 .2-.3 .3-.2 .3-.2 .2-.3 7.5-1q7.5-1 11.5-1.3z" fill="#945358" fill-rule="evenodd" stroke="#945358" stroke-width=".5"/>
 <path d="m574,495.2v-.2l8.5.2q8.5.3 12.5.6l4,.2v.2q0,.3.5.6l.5.2v.2 .3l.2.3 .3.2 .3.2 .2.3 .2.3 .3.2 .3.2 .2.3 .2.3 .3.2v1 1 1 1 .5 .5l-.5,2-.5,2-.3.2-.2.3 .8.7q.7.8 1,1.3l.2.5-2.8-1q-2.7-1-3-3-.2-2-2.2-2.2-2-.3-5.8.4-3.7.8-3,2.3 .8,1.5-6.7,3.7-7.5,2.3-17.5,2.8t-15.2,5.2q-5.3,4.8-11.3,10.3t-10,9.5-5,7 .3,6.8q1.2,3.7 4.7,7.2t10.5,8 9,5l4,1 2,.5 .2.3 .3.2 .3.2 .2.3 3.5.3 3.5.2v.5 .5l-2.5.2-2.5.3h-12q-12,0-15.5-.5t-22-3.5-51.5-3.7l-33-.8-1.5-.2-1.5-.3-2-.5-2-.5-.2-.3q-.3-.2-5-1.7-4.8-1.5-4.8-2.5t-2.5-2l-2.5-1-.2-.5q-.3-.5-.6-.5h-.2v-1q0-1-1-1h-1l-.2-.5q-.3-.5-.6-.5h-.2l-.2-.5q-.3-.5-.6-.5h-.2l-.2-.5q-.3-.5-5-5.7l-4.8-5.3-.2-.3-.3-.2-.3-.2-.2-.3 .2-.3 .3-.2 .3-1 .2-1 1.2-.5q1.3-.5 1.6-1.5 .2-1 1.4-1.5 1.3-.5 1.6-2 .2-1.5 11.7-4.3 11.5-2.7 23-4.2t48-2.5 41.5-5 9.8-4.7q4.7-.8 5-1.8 .2-1 3-2 2.7-1 3.4-2.2 .8-1.3 6.3-2 5.5-.8 6.3-4.3 .7-3.5 2.4-4.3 1.8-.7 13.3-1.7t11.5-1.3z" fill="#dea99b" fill-rule="evenodd" stroke="#dea99b" stroke-width=".5"/>
 <path d="m360,356.2 6-.2v.2q0,.3-1,.8l-1,.5 .2.3 .3.2 .3.2 .2.3-1,.5-1,.5-1.5.5-1.5.5-.2.3-.3.2-.3.2-.2.3-1,.5-1,.5 .2.3 .3.2 .3.2 .2.3 .2.3 .3.2 .3.2 .2.3 1.5.5 1.5.5 17,2.5q17,2.5 29,3t16.5,2 23.5,1.5 32,1 16.5.5 6-.8l2.5-.2 1.5.2 1.5.3 9,2.3q9,2.2 9,3.7t2.8,2.5q2.7,1 7.4,3.8 4.8,2.7 5.8,3 1,.2 1,1.2t2,1.2l2,.3 .2.3 .3.2 .3.5 .2.5-3.5.2-3.5.3h-2-2l-1-.5-1-.5-.2-.3-.3-.2h-.3-.2v-.2q0-.3-1-.6-1-.2-1,.8t-2,1.2q-2,.3-2.2,2.6-.3,2.2-1,2.4-.8.3-4.8-.2t-7-2.5-6-1.3q-3,.8-3.2-.2-.3-1-3-2.8-2.8-1.7-3.8-.4-1,1.2-2.5,2-1.5.7-4.5.2t-8-.5h-5l-.2.3-.3.2-.3-.2-.2-.3h-1.5-1.5l-.2.3-.3.2-.3.2-.2.3v.3 .2l-.5.2q-.5.3-6,1.8t-11,.5-8.7-1.3q-3.3-.2-5.6.6-2.2.7-16.2,2-14,1.2-14.2.2-.3-1-3.6-1.8-3.2-.7-3.7-2-.5-1.2-6-2.4-5.5-1.3-8.3-.6-2.7.8-21.2.3t-24.8-2.7q-6.2-2.3-10.2-1.6l-4,.8-1-.2-1-.3-1-.5-1-.5-.2-.3-.3-.2-.3-.2-.2-.3-.2-.3-.3-.2-.3-.2-.2-.3-1-.5-1-.5-.2-.3-.3-.2-.3-.2-.2-.3-.2-.3-.3-.2-.3-.2-.2-.3 1-.5 1-.5h2.5 2.5l3.5.5q3.5.5 14.5.5h11l-1-.5-1-.5-.2-.3-.3-.2-.3-.2-.2-.3-.2-.3-.3-.2-.3-.2-.2-.3-.2-.3-.3-.2-.3-.2-.2-.3-.2-.3-.3-.2-.3-.2-.2-.3-1.5-.5q-1.5-.5-12.3-4.8l-10.7-4.2-.3-.2-.2-.3-.2-.3-.3-.2-.3-.2-.2-.3-.2-.3-.3-.2-.5-1-.5-1h-.3-.2v-.2-.3l1.5-.5 1.5-.5-.2-.3-.3-.2-.3-.2-.2-.3-.2-.3-.3-.2-.3-1-.2-1h14q14,0 15.5-1.8 1.5-1.7 7.5-2z" fill="#c77875" fill-rule="evenodd" stroke="#c77875" stroke-width=".5"/>
 <path d="m997,334 11-.5 1-.3 1-.2 34,3.2q34,3.3 47,3.6l13,.2 3.5,1.8q3.5,1.7 4,3 .5,1.2-.5,1.2t-.8,2q.3,2 .6,3.5l.2,1.5 7.2.5q7.3.5 7,1.3-.2.7 1.3,1l1.5.2v.2q0,.3-13.5,1.3t-13.3,3.7q.3,2.8-13,2.6-13.2-.3-24.7-.3t-10,1.7q1.5,1.8-9,1.6-10.5-.3-14-2.3t-14.5-3l-11-1-1.5-.3-1.5-.2-1-.2q-1-.3-2.5-.6-1.5-.2-1.3-1.7 .3-1.5-.4-2.7-.8-1.3-5.6-1.6-4.7-.2-4.7,2.8v3l-.3-.2-.2-.3-.2-.3-.3-.2-.3-.2q-.2-.3-1.7-.8t-7.5-2l-6-1.5-1-.5-1-.5 4-.5q4-.5 5-1l1-.5 .2-.3 .3-.2v-.5-.5l-.3-.2-.2-.3-.2-.3-.3-.2-.3-.2-.2-.3-.2-.3-.3-.2-.3-1q-.2-1-2.7-1.5l-2.5-.5v-1-1l-1-.2-1-.3 .2-.3 .3-.2 .3-.2 .2-.3 4-.5 4-.5-6.5-.5-6.5-.5-2.5-.5-2.5-.5v-.3-.2-.2-.3l1.5-.5 1.5-.5 2.5-.5 2.5-.5h9q9,0 20-.5z" fill="#875669" fill-rule="evenodd" stroke="#875669" stroke-width=".5"/>
 <path d="m554.5,495.2 19.5-.2v.2q0,.3-11.5,1.3t-13.3,1.7q-1.7.8-2.4,4.3-.8,3.5-6.3,4.3-5.5.7-6.3,2-.7,1.2-3.4,2.2-2.8,1-3,2-.3,1-5,1.8-4.8.7-9.8,4.7t-41.5,5-48,2.5-23,4.2q-11.5,2.8-11.7,4.3-.3,1.5-1.6,2-1.2.5-1.4,1.5-.3,1-1.6,1.5l-1.2.5-.2,1-.3,1-.3.2-.2.3 .2.3 .3.2 .3.2 .2.3 4.5,5q4.5,5 5.5,5.5l1,.5 .2.3 .3.2 .3.2 .2.3 .2.3 .3.2 .3.2 .2.3 .2.3 .3.2 .3.2 .2.3 .2.3 .3.2 .3,1 .2,1h-1-1v-1-1l-1-.2-1-.3-.2-.3-.3-.2-.3-.2-.2-.3-.2-.3-.3-.2-.3-.2-.2-.3-1-.5q-1-.5-7-4t-18-4.5-15.2-3.3q-3.3-2.2-4.3-4.7t-1.5-5 1-5.5 2.2-8q.8-5 8.6-6.5 7.7-1.5 10.4-2.3 2.8-.7 5.6-2.4 2.7-1.8 1.4-2.6-1.2-.7-.7-1.2t7-1.2l6.5-.8 7.5-.8q7.5-.7 8-2 .5-1.2 4.7-2.2 4.3-1 6.6-2 2.2-1 2.2,0t2,.8q2-.3 16.5,1.7t20.5,1 20,0 13.5.5 14.5-1.5 19-.3q4,.8 4-.7t4.5-2.3q4.5-.7 24-1z" fill="#bc7769" fill-rule="evenodd" stroke="#bc7769" stroke-width=".5"/>
 <path d="m773.2,157.5-.2-1.5 8.8,1.5q8.7,1.5 20,5.3 11.2,3.7 13.2,4.2t6.5,1l4.5.5 1,.5 1,.5v.3 .2h-.2-.3v1 1l.5,1 .5,1v.5 .5l-.5,2-.5,2-.5,1q-.5,1-7.2,5.2-6.8,4.3-16.3,6.3t-16.5,0-25.5-3-20-1.5-9.5-1-10.5.2q-2.5.8-2.5,1.8t-16.5,3.2q-16.5,2.3-23,3l-6.5.8-1.5.2-1.5.3-7.5.5-7.5.5h-1.5-1.5l.2-.3 .3-.2 .3-.2 .2-.3 .2-.3 .3-.2v-.5-.5l-.3-.2-.2-.3 1.8-2.7q1.7-2.8 2-4.8 .2-2-2-4-2.3-2-1.8-4.5t5.2-7.7q4.8-5.3 12.3-6.3t9.5-1.3l2-.2v.2 .3l27.5,1q27.5,1 26.5,1.5t4.5,2.5 12,1.5 9.5-1 7.8-2.2q4.7-1.8 4.2-4.3l-.8-4z" fill="#867cb7" fill-rule="evenodd" stroke="#867cb7" stroke-width=".5"/>
</svg>
